<?xml version="1.0" encoding="utf-8"?>
<!-- Generated by IcoMoon.io -->
<!DOCTYPE svg PUBLIC "-//W3C//DTD SVG 1.1//EN" "http://www.w3.org/Graphics/SVG/1.1/DTD/svg11.dtd">
<svg version="1.1" xmlns="http://www.w3.org/2000/svg" xmlns:xlink="http://www.w3.org/1999/xlink" width="96" height="96" viewBox="0 0 96 96">
<g>
	<line stroke-width="1" x1="" y1="" x2="" y2="" stroke="#449FDB" opacity=""></line>
</g>
	<path d="M48 8c-22 0-40 18-40 40s18 40 40 40c22 0 40-18 40-40s-18-40-40-40zM48 20c6.8 0 12 5.2 12 12s-5.2 12-12 12c-6.8 0-12-5.2-12-12s5.2-12 12-12zM48 76.8c-10 0-18.8-5.2-24-12.8 0-8 16-12.4 24-12.4s24 4.4 24 12.4c-5.2 7.6-14 12.8-24 12.8z" fill="#000000"></path>
</svg>
