<?xml version="1.0" encoding="utf-8"?>
<!-- Generated by IcoMoon.io -->
<!DOCTYPE svg PUBLIC "-//W3C//DTD SVG 1.1//EN" "http://www.w3.org/Graphics/SVG/1.1/DTD/svg11.dtd">
<svg version="1.1" xmlns="http://www.w3.org/2000/svg" xmlns:xlink="http://www.w3.org/1999/xlink" width="96" height="96" viewBox="0 0 96 96">
<g>
	<line stroke-width="1" x1="" y1="" x2="" y2="" stroke="#449FDB" opacity=""></line>
</g>
	<path d="M12 20v56c0 4.4 3.6 8 8 8h56c4.4 0 8-3.6 8-8v-56c0-4.4-3.6-8-8-8h-56c-4.4 0-8 3.6-8 8zM60 36c0 6.8-5.2 12-12 12s-12-5.2-12-12c0-6.8 5.2-12 12-12s12 5.2 12 12zM24 68c0-8 16-12.4 24-12.4s24 4.4 24 12.4v4h-48v-4z" fill="#000000"></path>
</svg>
