<?xml version="1.0" encoding="utf-8"?>
<!-- Generated by IcoMoon.io -->
<!DOCTYPE svg PUBLIC "-//W3C//DTD SVG 1.1//EN" "http://www.w3.org/Graphics/SVG/1.1/DTD/svg11.dtd">
<svg version="1.1" xmlns="http://www.w3.org/2000/svg" xmlns:xlink="http://www.w3.org/1999/xlink" width="96" height="96" viewBox="0 0 96 96">
<g>
	<line stroke-width="1" x1="" y1="" x2="" y2="" stroke="#449FDB" opacity=""></line>
</g>
	<path d="M20 64c0 15.6 12.4 28 28 28s28-12.4 28-28v-16h-56v16zM64.4 17.6l8.4-8.4-3.2-3.2-9.2 9.2c-3.6-2-8-3.2-12.4-3.2s-8.8 1.2-12.4 2.8l-9.2-9.2-3.2 3.6 8.4 8.4c-7.2 4.8-11.6 13.2-11.6 22.4v4h56v-4c0-9.2-4.4-17.6-11.6-22.4zM36 36c-2.4 0-4-1.6-4-4s1.6-4 4-4c2.4 0 4 1.6 4 4s-1.6 4-4 4zM60 36c-2.4 0-4-1.6-4-4s1.6-4 4-4c2.4 0 4 1.6 4 4s-1.6 4-4 4z" fill="#000000"></path>
</svg>
