<?xml version="1.0" encoding="utf-8"?>
<!-- Generated by IcoMoon.io -->
<!DOCTYPE svg PUBLIC "-//W3C//DTD SVG 1.1//EN" "http://www.w3.org/Graphics/SVG/1.1/DTD/svg11.dtd">
<svg version="1.1" xmlns="http://www.w3.org/2000/svg" xmlns:xlink="http://www.w3.org/1999/xlink" width="96" height="96" viewBox="0 0 96 96">
<g>
	<line stroke-width="1" x1="" y1="" x2="" y2="" stroke="#449FDB" opacity=""></line>
</g>
	<path d="M31.6 13.6l-5.2-6-18.4 15.2 5.2 6 18.4-15.2zM88 22.8l-18.4-15.6-5.2 6 18.4 15.6 5.2-6zM48 16c-20 0-36 16-36 36s16 36 36 36 36-16 36-36c0-20-16-36-36-36zM48 80c-15.6 0-28-12.4-28-28s12.4-28 28-28c15.6 0 28 12.4 28 28s-12.4 28-28 28zM52 36h-8v12h-12v8h12v12h8v-12h12v-8h-12v-12z" fill="#000000"></path>
</svg>
