<?xml version="1.0" encoding="utf-8"?>
<!-- Generated by IcoMoon.io -->
<!DOCTYPE svg PUBLIC "-//W3C//DTD SVG 1.1//EN" "http://www.w3.org/Graphics/SVG/1.1/DTD/svg11.dtd">
<svg version="1.1" xmlns="http://www.w3.org/2000/svg" xmlns:xlink="http://www.w3.org/1999/xlink" width="96" height="96" viewBox="0 0 96 96">
<g>
	<line stroke-width="1" x1="" y1="" x2="" y2="" stroke="#449FDB" opacity=""></line>
</g>
	<path d="M24 72c0 2.4 1.6 4 4 4h4v14c0 3.2 2.8 6 6 6s6-2.8 6-6v-14h8v14c0 3.2 2.8 6 6 6s6-2.8 6-6v-14h4c2.4 0 4-1.6 4-4v-40h-48v40zM14 32c-3.2 0-6 2.8-6 6v28c0 3.2 2.8 6 6 6s6-2.8 6-6v-28c0-3.2-2.8-6-6-6zM82 32c-3.2 0-6 2.8-6 6v28c0 3.2 2.8 6 6 6s6-2.8 6-6v-28c0-3.2-2.8-6-6-6zM62 8.8l5.2-5.2c0.8-0.8 0.8-2 0-2.8s-2-0.8-2.8 0l-6 6c-2.8-2-6.4-2.8-10.4-2.8s-7.6 0.8-10.8 2.4l-5.6-6c-0.8-0.4-2.4-0.4-3.2 0-0.4 0.8-0.4 2.4 0 3.2l5.2 5.2c-5.6 4.4-9.6 11.2-9.6 19.2h48c0-8-4-15.2-10-19.2zM40 20h-4v-4h4v4zM60 20h-4v-4h4v4z" fill="#000000"></path>
</svg>
