<?xml version="1.0" encoding="utf-8"?>
<!-- Generated by IcoMoon.io -->
<!DOCTYPE svg PUBLIC "-//W3C//DTD SVG 1.1//EN" "http://www.w3.org/Graphics/SVG/1.1/DTD/svg11.dtd">
<svg version="1.1" xmlns="http://www.w3.org/2000/svg" xmlns:xlink="http://www.w3.org/1999/xlink" width="96" height="96" viewBox="0 0 96 96">
<g>
	<line stroke-width="1" x1="" y1="" x2="" y2="" stroke="#449FDB" opacity=""></line>
</g>
	<path d="M82 20.8l-5.6-6.8c-0.8-1.2-2.4-2-4.4-2h-48c-2 0-3.6 0.8-4.8 2l-5.2 6.8c-1.2 1.6-2 3.2-2 5.2v50c0 4.4 3.6 8 8 8h56c4.4 0 8-3.6 8-8v-50c0-2-0.8-3.6-2-5.2zM48 70l-22-22h14v-8h16v8h14l-22 22zM20.4 20l3.2-4h48l3.6 4h-54.8z" fill="#000000"></path>
</svg>
