<?xml version="1.0" encoding="utf-8"?>
<!-- Generated by IcoMoon.io -->
<!DOCTYPE svg PUBLIC "-//W3C//DTD SVG 1.1//EN" "http://www.w3.org/Graphics/SVG/1.1/DTD/svg11.dtd">
<svg version="1.1" xmlns="http://www.w3.org/2000/svg" xmlns:xlink="http://www.w3.org/1999/xlink" width="96" height="96" viewBox="0 0 96 96">
<g>
	<line stroke-width="1" x1="" y1="" x2="" y2="" stroke="#449FDB" opacity=""></line>
</g>
	<path d="M30 72c-12 0-22-10-22-22s10-22 22-22h42c8.8 0 16 7.2 16 16s-7.2 16-16 16h-34c-5.6 0-10-4.4-10-10s4.4-10 10-10h30v6h-30c-2.4 0-4 1.6-4 4s1.6 4 4 4h34c5.6 0 10-4.4 10-10s-4.4-10-10-10h-42c-8.8 0-16 7.2-16 16s7.2 16 16 16h38v6h-38z" fill="#000000"></path>
</svg>
