<?xml version="1.0" encoding="utf-8"?>
<!-- Generated by IcoMoon.io -->
<!DOCTYPE svg PUBLIC "-//W3C//DTD SVG 1.1//EN" "http://www.w3.org/Graphics/SVG/1.1/DTD/svg11.dtd">
<svg version="1.1" xmlns="http://www.w3.org/2000/svg" xmlns:xlink="http://www.w3.org/1999/xlink" width="96" height="96" viewBox="0 0 96 96">
<g>
	<line stroke-width="1" x1="" y1="" x2="" y2="" stroke="#449FDB" opacity=""></line>
</g>
	<path d="M30 22.4l10 5.6-5.6-10 5.6-10-10 5.6-10-5.6 5.6 10-5.6 10z" fill="#000000"></path>
	<path d="M78 61.6l-10-5.6 5.6 10-5.6 10 10-5.6 10 5.6-5.6-10 5.6-10z" fill="#000000"></path>
	<path d="M88 8l-10 5.6-10-5.6 5.6 10-5.6 10 10-5.6 10 5.6-5.6-10z" fill="#000000"></path>
	<path d="M57.6 29.2c-1.6-1.6-4-1.6-5.6 0l-46.8 46.8c-1.6 1.6-1.6 4 0 5.6l9.2 9.2c1.6 1.6 4 1.6 5.6 0l46.8-46.8c1.6-1.6 1.6-4 0-5.6l-9.2-9.2zM53.2 51.2l-8.4-8.4 9.6-9.6 8.4 8.4-9.6 9.6z" fill="#000000"></path>
</svg>
