<?xml version="1.0" encoding="utf-8"?>
<!-- Generated by IcoMoon.io -->
<!DOCTYPE svg PUBLIC "-//W3C//DTD SVG 1.1//EN" "http://www.w3.org/Graphics/SVG/1.1/DTD/svg11.dtd">
<svg version="1.1" xmlns="http://www.w3.org/2000/svg" xmlns:xlink="http://www.w3.org/1999/xlink" width="96" height="96" viewBox="0 0 96 96">
<g>
	<line stroke-width="1" x1="" y1="" x2="" y2="" stroke="#449FDB" opacity=""></line>
</g>
	<path d="M88 12h-60c-2.8 0-4.8 1.2-6.4 3.6l-21.6 32.4 21.6 32.4c1.6 2 3.6 3.6 6.4 3.6h60c4.4 0 8-3.6 8-8v-56c0-4.4-3.6-8-8-8zM76 62.4l-5.6 5.6-14.4-14.4-14.4 14.4-5.6-5.6 14.4-14.4-14.4-14.4 5.6-5.6 14.4 14.4 14.4-14.4 5.6 5.6-14.4 14.4 14.4 14.4z" fill="#000000"></path>
</svg>
