<?xml version="1.0" encoding="utf-8"?>
<!-- Generated by IcoMoon.io -->
<!DOCTYPE svg PUBLIC "-//W3C//DTD SVG 1.1//EN" "http://www.w3.org/Graphics/SVG/1.1/DTD/svg11.dtd">
<svg version="1.1" xmlns="http://www.w3.org/2000/svg" xmlns:xlink="http://www.w3.org/1999/xlink" width="96" height="96" viewBox="0 0 96 96">
<g>
	<line stroke-width="1" x1="" y1="" x2="" y2="" stroke="#449FDB" opacity=""></line>
</g>
	<path d="M48 8c-22 0-40 18-40 40s18 40 40 40c22 0 40-18 40-40s-18-40-40-40zM16 48c0-17.6 14.4-32 32-32 7.2 0 14 2.4 19.6 6.8l-44.8 44.8c-4.4-5.6-6.8-12.4-6.8-19.6zM48 80c-7.2 0-14-2.4-19.6-6.8l44.8-44.8c4.4 5.6 6.8 12.4 6.8 19.6 0 17.6-14.4 32-32 32z" fill="#000000"></path>
</svg>
