<?xml version="1.0" encoding="utf-8"?>
<!-- Generated by IcoMoon.io -->
<!DOCTYPE svg PUBLIC "-//W3C//DTD SVG 1.1//EN" "http://www.w3.org/Graphics/SVG/1.1/DTD/svg11.dtd">
<svg version="1.1" xmlns="http://www.w3.org/2000/svg" xmlns:xlink="http://www.w3.org/1999/xlink" width="96" height="96" viewBox="0 0 96 96">
<g>
	<line stroke-width="1" x1="" y1="" x2="" y2="" stroke="#449FDB" opacity=""></line>
</g>
	<path d="M56.8 48l9.2 9.2c1.2-2.8 1.6-6 1.6-9.2s-0.8-6.4-1.6-9.2l-9.2 9.2zM78 26.8l-4.8 5.2c2.4 4.8 4 10.4 4 16s-1.6 11.2-4 16l4.8 4.8c4-6 6-13.6 6-21.2s-2-14.8-6-20.8zM62.8 30.8l-22.8-22.8h-4v30.4l-18.4-18.4-5.6 5.6 22.4 22.4-22.4 22.4 5.6 5.6 18.4-18.4v30.4h4l22.8-22.8-17.2-17.2 17.2-17.2zM44 23.2l7.6 7.6-7.6 7.6v-15.2zM51.6 65.2l-7.6 7.6v-15.2l7.6 7.6z" fill="#000000"></path>
</svg>
