<?xml version="1.0" encoding="utf-8"?>
<!-- Generated by IcoMoon.io -->
<!DOCTYPE svg PUBLIC "-//W3C//DTD SVG 1.1//EN" "http://www.w3.org/Graphics/SVG/1.1/DTD/svg11.dtd">
<svg version="1.1" xmlns="http://www.w3.org/2000/svg" xmlns:xlink="http://www.w3.org/1999/xlink" width="96" height="96" viewBox="0 0 96 96">
<g>
	<line stroke-width="1" x1="" y1="" x2="" y2="" stroke="#449FDB" opacity=""></line>
</g>
	<path d="M64.585 46.909c4.97-3.467 8.487-9.086 8.487-14.339 0-11.596-8.976-20.571-20.572-20.571h-32.145v72h36.218c10.768 0 19.071-8.733 19.071-19.501 0-7.794-4.441-14.471-11.060-17.589zM35.785 24.858h15.429c4.26 0 7.714 3.454 7.714 7.714s-3.454 7.715-7.714 7.715h-15.429v-15.428zM53.786 71.145h-18.001v-15.431h18.001c4.257 0 7.714 3.457 7.714 7.717 0 4.257-3.457 7.714-7.714 7.714z" fill="#000000"></path>
</svg>
