<?xml version="1.0" encoding="utf-8"?>
<!-- Generated by IcoMoon.io -->
<!DOCTYPE svg PUBLIC "-//W3C//DTD SVG 1.1//EN" "http://www.w3.org/Graphics/SVG/1.1/DTD/svg11.dtd">
<svg version="1.1" xmlns="http://www.w3.org/2000/svg" xmlns:xlink="http://www.w3.org/1999/xlink" width="96" height="96" viewBox="0 0 96 96">
<g>
	<line stroke-width="1" x1="" y1="" x2="" y2="" stroke="#449FDB" opacity=""></line>
</g>
	<path d="M80 34.8v-18.8h-18.8l-13.2-13.2-13.2 13.2h-18.8v18.8l-13.2 13.2 13.2 13.2v18.8h18.8l13.2 13.2 13.2-13.2h18.8v-18.8l13.2-13.2-13.2-13.2zM48 72c-13.2 0-24-10.8-24-24s10.8-24 24-24c13.2 0 24 10.8 24 24s-10.8 24-24 24zM48 32c-8.8 0-16 7.2-16 16s7.2 16 16 16 16-7.2 16-16c0-8.8-7.2-16-16-16z" fill="#000000"></path>
</svg>
