<?xml version="1.0" encoding="utf-8"?>
<!-- Generated by IcoMoon.io -->
<!DOCTYPE svg PUBLIC "-//W3C//DTD SVG 1.1//EN" "http://www.w3.org/Graphics/SVG/1.1/DTD/svg11.dtd">
<svg version="1.1" xmlns="http://www.w3.org/2000/svg" xmlns:xlink="http://www.w3.org/1999/xlink" width="96" height="96" viewBox="0 0 96 96">
<g>
	<line stroke-width="1" x1="" y1="" x2="" y2="" stroke="#449FDB" opacity=""></line>
</g>
	<path d="M80 32h-11.2c-2-3.2-4.4-6-7.2-8l6.4-6.4-5.6-5.6-8.8 8.8c-1.6-0.4-3.6-0.8-5.6-0.8s-4 0.4-5.6 0.8l-8.8-8.8-5.6 5.6 6.4 6.4c-2.8 2-5.2 4.8-7.2 8h-11.2v8h8.4c-0.4 1.2-0.4 2.8-0.4 4v4h-8v8h8v4c0 1.2 0 2.8 0.4 4h-8.4v8h11.2c4 7.2 12 12 20.8 12s16.8-4.8 20.8-12h11.2v-8h-8.4c0.4-1.2 0.4-2.8 0.4-4v-4h8v-8h-8v-4c0-1.2 0-2.8-0.4-4h8.4v-8zM56 64h-16v-8h16v8zM56 48h-16v-8h16v8z" fill="#000000"></path>
</svg>
