<?xml version="1.0" encoding="utf-8"?>
<!-- Generated by IcoMoon.io -->
<!DOCTYPE svg PUBLIC "-//W3C//DTD SVG 1.1//EN" "http://www.w3.org/Graphics/SVG/1.1/DTD/svg11.dtd">
<svg version="1.1" xmlns="http://www.w3.org/2000/svg" xmlns:xlink="http://www.w3.org/1999/xlink" width="96" height="96" viewBox="0 0 96 96">
<g>
	<line stroke-width="1" x1="" y1="" x2="" y2="" stroke="#449FDB" opacity=""></line>
</g>
	<path d="M48 22c3.2 0 6-2.8 6-6 0-1.2-0.4-2-0.8-3.2l-5.2-8.8-5.2 8.8c-0.4 0.8-0.8 2-0.8 3.2 0 3.2 2.8 6 6 6zM74 32h-22v-6h-8v6h-22c-10 0-18 8-18 18 0 6.4 3.2 11.6 8 14.8v27.2h72v-27.2c4.8-3.2 8-8.8 8-14.8 0-10-8-18-18-18zM74 60c-2.8 0-5.2-1.2-7.2-2.8l-6-6-6 6c-1.6 1.6-4 2.8-6.8 2.8s-5.2-1.2-7.2-2.8l-6-6-6 6c-1.6 1.6-4 2.8-6.8 2.8-5.6 0-10-4.4-10-10s4.4-10 10-10h52c5.6 0 10 4.4 10 10s-4.4 10-10 10z" fill="#000000"></path>
</svg>
