<?xml version="1.0" encoding="utf-8"?>
<!-- Generated by IcoMoon.io -->
<!DOCTYPE svg PUBLIC "-//W3C//DTD SVG 1.1//EN" "http://www.w3.org/Graphics/SVG/1.1/DTD/svg11.dtd">
<svg version="1.1" xmlns="http://www.w3.org/2000/svg" xmlns:xlink="http://www.w3.org/1999/xlink" width="96" height="96" viewBox="0 0 96 96">
<g>
	<line stroke-width="1" x1="" y1="" x2="" y2="" stroke="#449FDB" opacity=""></line>
</g>
	<path d="M48 36c-6.4 0-12.4 1.2-18.4 2.8v12.4c0 1.6-0.8 2.8-2.4 3.6-4 2-7.6 4.4-10.8 7.6-0.8 0.8-1.6 1.2-2.8 1.2s-2-0.4-2.8-1.2l-10-10c-0.4-0.8-0.8-1.6-0.8-2.8s0.4-2 1.2-2.8c12-11.6 28.8-18.8 46.8-18.8s34.8 7.2 46.8 18.8c0.8 0.8 1.2 1.6 1.2 2.8s-0.4 2-1.2 2.8l-10 10c-0.8 0.8-1.6 1.2-2.8 1.2s-2-0.4-2.8-1.2c-3.2-2.8-6.8-5.6-10.8-7.6-1.2-0.8-2.4-2-2.4-3.6v-12.4c-5.6-1.6-11.6-2.8-18-2.8z" fill="#000000"></path>
</svg>
