<?xml version="1.0" encoding="utf-8"?>
<!-- Generated by IcoMoon.io -->
<!DOCTYPE svg PUBLIC "-//W3C//DTD SVG 1.1//EN" "http://www.w3.org/Graphics/SVG/1.1/DTD/svg11.dtd">
<svg version="1.1" xmlns="http://www.w3.org/2000/svg" xmlns:xlink="http://www.w3.org/1999/xlink" width="96" height="96" viewBox="0 0 96 96">
<g>
	<line stroke-width="1" x1="" y1="" x2="" y2="" stroke="#449FDB" opacity=""></line>
</g>
	<path d="M37.6 42l19.2-33.2c-2.8-0.4-6-0.8-8.8-0.8-9.6 0-18.4 3.2-25.2 9.2l14.8 25.2v-0.4zM86 36c-3.6-11.6-12.4-21.2-24-25.2l-14.4 25.2h38.4zM87.2 40h-30l1.2 2 19.2 33.2c6.4-7.2 10.4-16.8 10.4-27.2 0-2.8-0.4-5.6-0.8-8zM34 48l-15.6-27.2c-6.4 7.2-10.4 16.8-10.4 27.2 0 2.8 0.4 5.6 0.8 8h30l-4.8-8zM10 60c3.6 11.6 12.4 21.2 24 25.2l14.8-25.2h-38.8zM54.8 60l-15.6 27.2c2.8 0.8 5.6 0.8 8.8 0.8 9.6 0 18.4-3.2 25.2-9.2l-14.8-25.2-3.6 6.4z" fill="#000000"></path>
</svg>
