<?xml version="1.0" encoding="utf-8"?>
<!-- Generated by IcoMoon.io -->
<!DOCTYPE svg PUBLIC "-//W3C//DTD SVG 1.1//EN" "http://www.w3.org/Graphics/SVG/1.1/DTD/svg11.dtd">
<svg version="1.1" xmlns="http://www.w3.org/2000/svg" xmlns:xlink="http://www.w3.org/1999/xlink" width="96" height="96" viewBox="0 0 96 96">
<g>
	<line stroke-width="1" x1="" y1="" x2="" y2="" stroke="#449FDB" opacity=""></line>
</g>
	<path d="M56 20c0-4.4-3.6-8-8-8h-4v-4c0-2.4-1.6-4-4-4h-16c-2.4 0-4 1.6-4 4v4h-4c-4.4 0-8 3.6-8 8v60c0 4.4 3.6 8 8 8h32c4.4 0 8-3.6 8-8h32v-60h-32zM48 72h-8v-8h8v8zM48 36h-8v-8h8v8zM64 72h-8v-8h8v8zM64 36h-8v-8h8v8zM80 72h-8v-8h8v8zM80 36h-8v-8h8v8z" fill="#000000"></path>
</svg>
