<?xml version="1.0" encoding="utf-8"?>
<!-- Generated by IcoMoon.io -->
<!DOCTYPE svg PUBLIC "-//W3C//DTD SVG 1.1//EN" "http://www.w3.org/Graphics/SVG/1.1/DTD/svg11.dtd">
<svg version="1.1" xmlns="http://www.w3.org/2000/svg" xmlns:xlink="http://www.w3.org/1999/xlink" width="96" height="96" viewBox="0 0 96 96">
<g>
	<line stroke-width="1" x1="" y1="" x2="" y2="" stroke="#449FDB" opacity=""></line>
</g>
	<path d="M60.8 48c0 7.069-5.731 12.8-12.8 12.8s-12.8-5.731-12.8-12.8c0-7.069 5.731-12.8 12.8-12.8s12.8 5.731 12.8 12.8z" fill="#000000"></path>
	<path d="M36 8l-7.2 8h-12.8c-4.4 0-8 3.6-8 8v48c0 4.4 3.6 8 8 8h64c4.4 0 8-3.6 8-8v-48c0-4.4-3.6-8-8-8h-12.8l-7.2-8h-24zM48 68c-11.2 0-20-8.8-20-20s8.8-20 20-20 20 8.8 20 20-8.8 20-20 20z" fill="#000000"></path>
</svg>
