<?xml version="1.0" encoding="utf-8"?>
<!-- Generated by IcoMoon.io -->
<!DOCTYPE svg PUBLIC "-//W3C//DTD SVG 1.1//EN" "http://www.w3.org/Graphics/SVG/1.1/DTD/svg11.dtd">
<svg version="1.1" xmlns="http://www.w3.org/2000/svg" xmlns:xlink="http://www.w3.org/1999/xlink" width="96" height="96" viewBox="0 0 96 96">
<g>
	<line stroke-width="1" x1="" y1="" x2="" y2="" stroke="#449FDB" opacity=""></line>
</g>
	<path d="M31.6 40.4l-5.6 5.6 18 18 40-40-5.6-5.6-34.4 34.4-12.4-12.4zM80 48c0 17.6-14.4 32-32 32s-32-14.4-32-32 14.4-32 32-32c3.2 0 6 0.4 8.8 1.2l6.4-6.4c-4.8-1.6-10-2.8-15.2-2.8-22 0-40 18-40 40s18 40 40 40 40-18 40-40h-8z" fill="#000000"></path>
</svg>
