<?xml version="1.0" encoding="utf-8"?>
<!-- Generated by IcoMoon.io -->
<!DOCTYPE svg PUBLIC "-//W3C//DTD SVG 1.1//EN" "http://www.w3.org/Graphics/SVG/1.1/DTD/svg11.dtd">
<svg version="1.1" xmlns="http://www.w3.org/2000/svg" xmlns:xlink="http://www.w3.org/1999/xlink" width="96" height="96" viewBox="0 0 96 96">
<g>
	<line stroke-width="1" x1="" y1="" x2="" y2="" stroke="#449FDB" opacity=""></line>
</g>
	<path d="M48 8c-22 0-40 18-40 40s18 40 40 40c22 0 40-18 40-40s-18-40-40-40zM48 16c12 0 22 6.4 27.6 16h-27.6c-7.6 0-14.4 5.6-15.6 12.8l-9.6-16.4c6-7.6 14.8-12.4 25.2-12.4zM60 48c0 6.8-5.2 12-12 12s-12-5.2-12-12c0-6.8 5.2-12 12-12s12 5.2 12 12zM16 48c0-6 1.6-11.2 4.4-16l14 24c2.8 4.8 8 8 13.6 8 2 0 3.6-0.4 5.2-0.8l-9.6 16.4c-15.6-2-27.6-15.6-27.6-31.6zM48 80l14-24c1.2-2.4 2.4-5.2 2.4-8 0-4.8-2-9.2-5.6-12h19.2c1.6 3.6 2.4 7.6 2.4 12-0.4 17.6-14.8 32-32.4 32z" fill="#000000"></path>
</svg>
