<?xml version="1.0" encoding="utf-8"?>
<!-- Generated by IcoMoon.io -->
<!DOCTYPE svg PUBLIC "-//W3C//DTD SVG 1.1//EN" "http://www.w3.org/Graphics/SVG/1.1/DTD/svg11.dtd">
<svg version="1.1" xmlns="http://www.w3.org/2000/svg" xmlns:xlink="http://www.w3.org/1999/xlink" width="96" height="96" viewBox="0 0 96 96">
<g>
	<line stroke-width="1" x1="" y1="" x2="" y2="" stroke="#449FDB" opacity=""></line>
</g>
	<path d="M66.8 60c-3.2 9.2-12 16-22.8 16-13.2 0-24-10.8-24-24 0-10.4 6.8-19.2 16-22.8 0-0.4 0-0.8 0-1.2 0-4 0.8-8 2-11.6-16.8 2.8-30 17.6-30 35.6 0 20 16 36 36 36 18 0 32.8-13.2 35.6-30-3.6 1.2-7.6 2-11.6 2-0.4 0-0.8 0-1.2 0z" fill="#000000"></path>
	<path d="M68 4c-13.2 0-24 10.8-24 24s10.8 24 24 24c13.2 0 24-10.8 24-24s-10.8-24-24-24zM68 40c-6.8 0-12-5.2-12-12s5.2-12 12-12c6.8 0 12 5.2 12 12s-5.2 12-12 12z" fill="#000000"></path>
</svg>
