<?xml version="1.0" encoding="utf-8"?>
<!-- Generated by IcoMoon.io -->
<!DOCTYPE svg PUBLIC "-//W3C//DTD SVG 1.1//EN" "http://www.w3.org/Graphics/SVG/1.1/DTD/svg11.dtd">
<svg version="1.1" xmlns="http://www.w3.org/2000/svg" xmlns:xlink="http://www.w3.org/1999/xlink" width="96" height="96" viewBox="0 0 96 96">
<g>
	<line stroke-width="1" x1="" y1="" x2="" y2="" stroke="#449FDB" opacity=""></line>
</g>
	<path d="M48 40c8.8 0 16-7.2 16-16s-7.2-16-16-16c-8.8 0-16 7.2-16 16s7.2 16 16 16zM48 16c4.4 0 8 3.6 8 8s-3.6 8-8 8c-4.4 0-8-3.6-8-8s3.6-8 8-8zM24 52c-8.8 0-16 7.2-16 16s7.2 16 16 16c8.8 0 16-7.2 16-16s-7.2-16-16-16zM24 76c-4.4 0-8-3.6-8-8s3.6-8 8-8c4.4 0 8 3.6 8 8s-3.6 8-8 8zM48 44.4c-4 0-7.6 3.6-7.6 7.6s3.6 7.6 7.6 7.6c4 0 7.6-3.6 7.6-7.6s-3.6-7.6-7.6-7.6zM72 52c-8.8 0-16 7.2-16 16s7.2 16 16 16c8.8 0 16-7.2 16-16s-7.2-16-16-16zM72 76c-4.4 0-8-3.6-8-8s3.6-8 8-8c4.4 0 8 3.6 8 8s-3.6 8-8 8z" fill="#000000"></path>
</svg>
