<?xml version="1.0" encoding="utf-8"?>
<!-- Generated by IcoMoon.io -->
<!DOCTYPE svg PUBLIC "-//W3C//DTD SVG 1.1//EN" "http://www.w3.org/Graphics/SVG/1.1/DTD/svg11.dtd">
<svg version="1.1" xmlns="http://www.w3.org/2000/svg" xmlns:xlink="http://www.w3.org/1999/xlink" width="96" height="96" viewBox="0 0 96 96">
<g>
	<line stroke-width="1" x1="" y1="" x2="" y2="" stroke="#449FDB" opacity=""></line>
</g>
	<path d="M76 16h-56c-4.4 0-8 3.6-8 8v48c0 4.4 3.6 8 8 8h56c4.4 0 8-3.6 8-8v-48c0-4.4-3.6-8-8-8zM44 44h-6v-2h-8v12h8v-2h6v4c0 2.4-1.6 4-4 4h-12c-2.4 0-4-1.6-4-4v-16c0-2.4 1.6-4 4-4h12c2.4 0 4 1.6 4 4v4zM72 44h-6v-2h-8v12h8v-2h6v4c0 2.4-1.6 4-4 4h-12c-2.4 0-4-1.6-4-4v-16c0-2.4 1.6-4 4-4h12c2.4 0 4 1.6 4 4v4z" fill="#000000"></path>
</svg>
