<?xml version="1.0" encoding="utf-8"?>
<!-- Generated by IcoMoon.io -->
<!DOCTYPE svg PUBLIC "-//W3C//DTD SVG 1.1//EN" "http://www.w3.org/Graphics/SVG/1.1/DTD/svg11.dtd">
<svg version="1.1" xmlns="http://www.w3.org/2000/svg" xmlns:xlink="http://www.w3.org/1999/xlink" width="96" height="96" viewBox="0 0 96 96">
<g>
	<line stroke-width="1" x1="" y1="" x2="" y2="" stroke="#449FDB" opacity=""></line>
</g>
	<path d="M48 8c-22 0-40 18-40 40s18 40 40 40c22 0 40-18 40-40s-18-40-40-40zM68 60h-38c-5.6 0-10-4.4-10-10s4.4-10 10-10h2.4c1.6-6.8 8-12 15.6-12 8.8 0 16 7.2 16 16h4c4.4 0 8 3.6 8 8s-3.6 8-8 8z" fill="#000000"></path>
</svg>
