<?xml version="1.0" encoding="utf-8"?>
<!-- Generated by IcoMoon.io -->
<!DOCTYPE svg PUBLIC "-//W3C//DTD SVG 1.1//EN" "http://www.w3.org/Graphics/SVG/1.1/DTD/svg11.dtd">
<svg version="1.1" xmlns="http://www.w3.org/2000/svg" xmlns:xlink="http://www.w3.org/1999/xlink" width="96" height="96" viewBox="0 0 96 96">
<g>
	<line stroke-width="1" x1="" y1="" x2="" y2="" stroke="#449FDB" opacity=""></line>
</g>
	<path d="M77.6 40c-2.8-13.6-14.8-24-29.6-24-6 0-11.6 1.6-16 4.8l6 6c2.8-2 6.4-2.8 10-2.8 12 0 22 10 22 22v2h6c6.8 0 12 5.2 12 12 0 4.4-2.4 8.4-6.4 10.4l6 6c5.2-3.6 8.4-9.6 8.4-16.4 0-10.4-8.4-19.2-18.4-20zM12 21.2l11.2 10.8c-12.8 0.8-23.2 11.2-23.2 24 0 13.2 10.8 24 24 24h46.8l8 8 5.2-5.2-66.8-66.8-5.2 5.2zM30.8 40l32 32h-38.8c-8.8 0-16-7.2-16-16s7.2-16 16-16h6.8z" fill="#000000"></path>
</svg>
