<?xml version="1.0" encoding="utf-8"?>
<!-- Generated by IcoMoon.io -->
<!DOCTYPE svg PUBLIC "-//W3C//DTD SVG 1.1//EN" "http://www.w3.org/Graphics/SVG/1.1/DTD/svg11.dtd">
<svg version="1.1" xmlns="http://www.w3.org/2000/svg" xmlns:xlink="http://www.w3.org/1999/xlink" width="96" height="96" viewBox="0 0 96 96">
<g>
	<line stroke-width="1" x1="" y1="" x2="" y2="" stroke="#449FDB" opacity=""></line>
</g>
	<path d="M40 24c0-8.8-7.2-16-16-16s-16 7.2-16 16c0 8.8 7.2 16 16 16 2.4 0 4.4-0.4 6.4-1.6l9.6 9.6-9.6 9.6c-2-1.2-4-1.6-6.4-1.6-8.8 0-16 7.2-16 16s7.2 16 16 16 16-7.2 16-16c0-2.4-0.4-4.4-1.6-6.4l9.6-9.6 28 28h16l-53.6-53.6c1.2-2 1.6-4 1.6-6.4zM24 32c-4.4 0-8-3.6-8-8s3.6-8 8-8c4.4 0 8 3.6 8 8s-3.6 8-8 8zM24 80c-4.4 0-8-3.6-8-8s3.6-8 8-8c4.4 0 8 3.6 8 8s-3.6 8-8 8zM48 46c1.2 0 2 0.8 2 2s-0.8 2-2 2c-1.2 0-2-0.8-2-2s0.8-2 2-2zM92 12h-16l-24 24 8 8 32-32z" fill="#000000"></path>
</svg>
