<?xml version="1.0" encoding="utf-8"?>
<!-- Generated by IcoMoon.io -->
<!DOCTYPE svg PUBLIC "-//W3C//DTD SVG 1.1//EN" "http://www.w3.org/Graphics/SVG/1.1/DTD/svg11.dtd">
<svg version="1.1" xmlns="http://www.w3.org/2000/svg" xmlns:xlink="http://www.w3.org/1999/xlink" width="96" height="96" viewBox="0 0 96 96">
<g>
	<line stroke-width="1" x1="" y1="" x2="" y2="" stroke="#449FDB" opacity=""></line>
</g>
	<path d="M76 8h-16.8c-1.6-4.8-6-8-11.2-8s-9.6 3.2-11.2 8h-16.8c-4.4 0-8 3.6-8 8v64c0 4.4 3.6 8 8 8h56c4.4 0 8-3.6 8-8v-64c0-4.4-3.6-8-8-8zM48 8c2.4 0 4 1.6 4 4s-1.6 4-4 4c-2.4 0-4-1.6-4-4s1.6-4 4-4zM76 80h-56v-64h8v12h40v-12h8v64z" fill="#000000"></path>
</svg>
