<?xml version="1.0" encoding="utf-8"?>
<!-- Generated by IcoMoon.io -->
<!DOCTYPE svg PUBLIC "-//W3C//DTD SVG 1.1//EN" "http://www.w3.org/Graphics/SVG/1.1/DTD/svg11.dtd">
<svg version="1.1" xmlns="http://www.w3.org/2000/svg" xmlns:xlink="http://www.w3.org/1999/xlink" width="96" height="96" viewBox="0 0 96 96">
<g>
	<line stroke-width="1" x1="" y1="" x2="" y2="" stroke="#449FDB" opacity=""></line>
</g>
	<path d="M52 8.4v12c13.6 2 24 13.6 24 27.6 0 3.6-0.8 6.8-2 10l10.4 6c2.4-4.8 3.6-10.4 3.6-16.4 0-20.4-15.6-37.2-36-39.2zM48 76c-15.6 0-28-12.4-28-28 0-14 10.4-25.6 24-27.6v-12c-20.4 1.6-36 18.8-36 39.6 0 22 18 40 40 40 13.2 0 24.8-6.4 32.4-16.4l-10.4-6c-5.2 6.4-13.2 10.4-22 10.4z" fill="#000000"></path>
</svg>
