<?xml version="1.0" encoding="utf-8"?>
<!-- Generated by IcoMoon.io -->
<!DOCTYPE svg PUBLIC "-//W3C//DTD SVG 1.1//EN" "http://www.w3.org/Graphics/SVG/1.1/DTD/svg11.dtd">
<svg version="1.1" xmlns="http://www.w3.org/2000/svg" xmlns:xlink="http://www.w3.org/1999/xlink" width="96" height="96" viewBox="0 0 96 96">
<g>
	<line stroke-width="1" x1="" y1="" x2="" y2="" stroke="#449FDB" opacity=""></line>
</g>
	<path d="M28 20h40v8h8v-16c0-4.4-3.6-8-8-8h-40c-4.4 0-8 3.6-8 8v16h8v-8zM61.6 66.4l18.4-18.4-18.4-18.4-5.6 5.6 12.8 12.8-12.8 12.8 5.6 5.6zM40 60.8l-12.8-12.8 12.8-12.8-5.6-5.6-18.4 18.4 18.4 18.4 5.6-5.6zM68 76h-40v-8h-8v16c0 4.4 3.6 8 8 8h40c4.4 0 8-3.6 8-8v-16h-8v8z" fill="#000000"></path>
</svg>
