<?xml version="1.0" encoding="utf-8"?>
<!-- Generated by IcoMoon.io -->
<!DOCTYPE svg PUBLIC "-//W3C//DTD SVG 1.1//EN" "http://www.w3.org/Graphics/SVG/1.1/DTD/svg11.dtd">
<svg version="1.1" xmlns="http://www.w3.org/2000/svg" xmlns:xlink="http://www.w3.org/1999/xlink" width="96" height="96" viewBox="0 0 96 96">
<g>
	<line stroke-width="1" x1="" y1="" x2="" y2="" stroke="#449FDB" opacity=""></line>
</g>
	<path d="M56 15.2c4 0 7.2-3.2 7.2-7.2s-3.2-7.2-7.2-7.2c-4 0-7.2 3.2-7.2 7.2s3.2 7.2 7.2 7.2zM56.4 40h19.6v-7.2h-14.4l-8-13.2c-1.2-2-3.6-3.6-6-3.6-0.8 0-1.2 0-2 0.4l-21.6 6.8v20.8h7.2v-14.8l8.4-2.8-15.6 61.6h7.2l11.6-32.4 9.2 12.4v20h7.2v-25.6l-10-18 2.8-11.6 4.4 7.2z" fill="#000000"></path>
</svg>
