<?xml version="1.0" encoding="utf-8"?>
<!-- Generated by IcoMoon.io -->
<!DOCTYPE svg PUBLIC "-//W3C//DTD SVG 1.1//EN" "http://www.w3.org/Graphics/SVG/1.1/DTD/svg11.dtd">
<svg version="1.1" xmlns="http://www.w3.org/2000/svg" xmlns:xlink="http://www.w3.org/1999/xlink" width="96" height="96" viewBox="0 0 96 96">
<g>
	<line stroke-width="1" x1="" y1="" x2="" y2="" stroke="#449FDB" opacity=""></line>
</g>
	<path d="M16 64c0 3.6 1.6 6.8 4 8.8v7.2c0 2.4 1.6 4 4 4h4c2.4 0 4-1.6 4-4v-4h32v4c0 2.4 1.6 4 4 4h4c2.4 0 4-1.6 4-4v-7.2c2.4-2 4-5.2 4-8.8v-40c0-14-14.4-16-32-16s-32 2-32 16v40zM30 68c-3.2 0-6-2.8-6-6s2.8-6 6-6c3.2 0 6 2.8 6 6s-2.8 6-6 6zM66 68c-3.2 0-6-2.8-6-6s2.8-6 6-6c3.2 0 6 2.8 6 6s-2.8 6-6 6zM72 44h-48v-20h48v20z" fill="#000000"></path>
</svg>
