<?xml version="1.0" encoding="utf-8"?>
<!-- Generated by IcoMoon.io -->
<!DOCTYPE svg PUBLIC "-//W3C//DTD SVG 1.1//EN" "http://www.w3.org/Graphics/SVG/1.1/DTD/svg11.dtd">
<svg version="1.1" xmlns="http://www.w3.org/2000/svg" xmlns:xlink="http://www.w3.org/1999/xlink" width="96" height="96" viewBox="0 0 96 96">
<g>
	<line stroke-width="1" x1="" y1="" x2="" y2="" stroke="#449FDB" opacity=""></line>
</g>
	<path d="M64 19.2c4 0 7.2-3.2 7.2-7.2s-3.2-7.2-7.2-7.2c-4 0-7.2 3.2-7.2 7.2s3.2 7.2 7.2 7.2zM76 48c-11.2 0-20 8.8-20 20s8.8 20 20 20c11.2 0 20-8.8 20-20s-8.8-20-20-20zM76 82c-7.6 0-14-6.4-14-14s6.4-14 14-14c7.6 0 14 6.4 14 14s-6.4 14-14 14zM59.2 40h16.8v-7.2h-12.8l-7.6-13.2c-1.2-2-3.2-3.2-6-3.2-2 0-3.6 0.8-4.8 2l-14.8 14.8c-1.2 1.2-2 2.8-2 4.8 0 2.4 1.2 4.8 3.2 6l13.6 8v20h7.2v-26l-8.8-6.8 9.2-9.2 6.8 10zM20 48c-11.2 0-20 8.8-20 20s8.8 20 20 20c11.2 0 20-8.8 20-20s-8.8-20-20-20zM20 82c-7.6 0-14-6.4-14-14s6.4-14 14-14c7.6 0 14 6.4 14 14s-6.4 14-14 14z" fill="#000000"></path>
</svg>
