<?xml version="1.0" encoding="utf-8"?>
<!-- Generated by IcoMoon.io -->
<!DOCTYPE svg PUBLIC "-//W3C//DTD SVG 1.1//EN" "http://www.w3.org/Graphics/SVG/1.1/DTD/svg11.dtd">
<svg version="1.1" xmlns="http://www.w3.org/2000/svg" xmlns:xlink="http://www.w3.org/1999/xlink" width="96" height="96" viewBox="0 0 96 96">
<g>
	<line stroke-width="1" x1="" y1="" x2="" y2="" stroke="#449FDB" opacity=""></line>
</g>
	<path d="M86.8 45.2l-36-36c-1.6-1.6-4-1.6-5.6 0l-36 36c-1.6 1.6-1.6 4 0 5.6l36 36c0 0 0 0 0 0 1.6 1.6 4 1.6 5.6 0l36-36c1.6-1.6 1.6-4 0-5.6zM56 58v-10h-16v12h-8v-16c0-2.4 1.6-4 4-4h20v-10l14 14-14 14z" fill="#000000"></path>
</svg>
