<?xml version="1.0" encoding="utf-8"?>
<!-- Generated by IcoMoon.io -->
<!DOCTYPE svg PUBLIC "-//W3C//DTD SVG 1.1//EN" "http://www.w3.org/Graphics/SVG/1.1/DTD/svg11.dtd">
<svg version="1.1" xmlns="http://www.w3.org/2000/svg" xmlns:xlink="http://www.w3.org/1999/xlink" width="96" height="96" viewBox="0 0 96 96">
<g>
	<line stroke-width="1" x1="" y1="" x2="" y2="" stroke="#449FDB" opacity=""></line>
</g>
	<path d="M48 28v-16h-40v72h80v-56h-40zM24 76h-8v-8h8v8zM24 60h-8v-8h8v8zM24 44h-8v-8h8v8zM24 28h-8v-8h8v8zM40 76h-8v-8h8v8zM40 60h-8v-8h8v8zM40 44h-8v-8h8v8zM40 28h-8v-8h8v8zM80 76h-32v-8h8v-8h-8v-8h8v-8h-8v-8h32v40zM72 44h-8v8h8v-8zM72 60h-8v8h8v-8z" fill="#000000"></path>
</svg>
