<?xml version="1.0" encoding="utf-8"?>
<!-- Generated by IcoMoon.io -->
<!DOCTYPE svg PUBLIC "-//W3C//DTD SVG 1.1//EN" "http://www.w3.org/Graphics/SVG/1.1/DTD/svg11.dtd">
<svg version="1.1" xmlns="http://www.w3.org/2000/svg" xmlns:xlink="http://www.w3.org/1999/xlink" width="96" height="96" viewBox="0 0 96 96">
<g>
	<line stroke-width="1" x1="" y1="" x2="" y2="" stroke="#449FDB" opacity=""></line>
</g>
	<path d="M76.001 12h-27.907v9h-9v-9h-19.094c-4.417 0-8 3.582-8 8v55.999c0 4.418 3.582 8.001 8 8.001h19v-22.5h9v10.219h9.094v12.281h18.905c4.417 0 8.001-3.583 8.001-7.999v-56.001c0-4.417-3.584-8-7.999-8zM48 45.75h-9v-9h9v9zM57.094 58.125h-9v-9h9v9zM57.094 33.375h-9v-9h9v9z" fill="#000000"></path>
	<path d="M42.656 75.656h10.875v4.5h-10.875v-4.5z" fill="#000000"></path>
</svg>
