<?xml version="1.0" encoding="utf-8"?>
<!-- Generated by IcoMoon.io -->
<!DOCTYPE svg PUBLIC "-//W3C//DTD SVG 1.1//EN" "http://www.w3.org/Graphics/SVG/1.1/DTD/svg11.dtd">
<svg version="1.1" xmlns="http://www.w3.org/2000/svg" xmlns:xlink="http://www.w3.org/1999/xlink" width="96" height="96" viewBox="0 0 96 96">
<g>
	<line stroke-width="1" x1="" y1="" x2="" y2="" stroke="#449FDB" opacity=""></line>
</g>
	<path d="M45.2 34.4v0c0.4 0 0.4 0 0 0 0.4-1.6 0.8-2.4 0.8-3.6v-0.8c0.4-2 0.4-3.6 0-4 0 0 0 0 0-0.4l-0.4-0.4c0 0 0 0 0 0s0 0 0 0 0 0.4-0.4 0.4c-0.8 2.4-0.8 5.2 0 8.8 0 0 0 0 0 0zM33.2 62c-0.8 0.4-1.6 0.8-2 1.2-2.8 2.4-4.8 5.2-5.2 6.4 0 0 0 0 0 0s0 0 0 0 0 0 0 0c2.4-0.4 4.8-2.8 7.2-7.6 0.4 0 0.4 0 0 0 0.4 0 0 0 0 0zM70 56c-0.4-0.4-2-1.6-7.6-1.6-0.4 0-0.4 0-0.8 0 0 0 0 0 0 0s0 0 0 0.4c2.8 1.2 5.6 2 7.6 2 0.4 0 0.4 0 0.8 0v0c0 0 0.4 0 0.4 0s0 0 0-0.4c0 0 0 0 0 0s-0.4 0-0.4-0.4zM76 12h-56c-4.4 0-8 3.6-8 8v56c0 4.4 3.6 8 8 8h56c4.4 0 8-3.6 8-8v-56c0-4.4-3.6-8-8-8zM71.6 59.2c-0.8 0.4-2 0.8-3.6 0.8-3.2 0-8-0.8-12-2.8-6.8 0.8-12 1.6-16 3.2-0.4 0-0.4 0-0.8 0.4-4.8 8.4-8.8 12.4-12 12.4-0.8 0-1.2 0-1.6-0.4l-2-1.2v-0.4c-0.4-0.8-0.4-1.2-0.4-2 0.4-2 2.8-5.6 7.6-8.4 0.8-0.4 2-1.2 3.6-2 1.2-2 2.4-4.4 4-7.2 2-4 3.2-8 4.4-11.6v0c-1.6-4.8-2.4-7.6-0.8-13.2 0.4-1.6 1.6-3.2 3.2-3.2h0.8c0.8 0 1.6 0.4 2.4 0.8 2.8 2.8 1.6 9.2 0 14.4 0 0.4 0 0.4 0 0.4 1.6 4.4 4 8 6.4 10.4 1.2 0.8 2 1.6 3.6 2.4 2 0 3.6-0.4 5.2-0.4 4.8 0 8 0.8 9.2 2.8 0.4 0.8 0.4 1.6 0.4 2.4-0.4 0.4-0.8 1.6-1.6 2.4zM45.6 43.6c-0.8 2.8-2.4 6-4 9.6-0.8 1.6-1.6 2.8-2.4 4.4 0 0 0.4 0 0.4 0h0.4c5.2-2 10-3.2 13.2-3.6-0.8-0.4-1.2-0.8-1.6-1.2-2-2.4-4.4-5.6-6-9.2z" fill="#000000"></path>
</svg>
