<?xml version="1.0" encoding="utf-8"?>
<!-- Generated by IcoMoon.io -->
<!DOCTYPE svg PUBLIC "-//W3C//DTD SVG 1.1//EN" "http://www.w3.org/Graphics/SVG/1.1/DTD/svg11.dtd">
<svg version="1.1" xmlns="http://www.w3.org/2000/svg" xmlns:xlink="http://www.w3.org/1999/xlink" width="96" height="96" viewBox="0 0 96 96">
<g>
	<line stroke-width="1" x1="" y1="" x2="" y2="" stroke="#449FDB" opacity=""></line>
</g>
	<path d="M76.001 12h-56.001c-4.417 0-8 3.582-8 8v55.999c0 4.418 3.582 8.001 8 8.001h55.999c4.417 0 8.001-3.583 8.001-7.999v-56.001c0-4.417-3.584-8-7.999-8zM52.406 39.050c3.281 1.641 5.555 5.027 5.555 8.95s-2.273 7.31-5.555 8.949v-17.899zM48 65.777l-11.111-11.121h-8.858v-13.313h8.858l11.111-11.122v35.555zM52.406 67.49v-4.584c6.469-1.915 11.112-7.859 11.112-14.905s-4.644-12.992-11.112-14.904v-4.584c8.906 2.022 15.555 9.971 15.555 19.49 0 9.514-6.649 17.461-15.555 19.487z" fill="#000000"></path>
</svg>
