<?xml version="1.0" encoding="utf-8"?>
<!-- Generated by IcoMoon.io -->
<!DOCTYPE svg PUBLIC "-//W3C//DTD SVG 1.1//EN" "http://www.w3.org/Graphics/SVG/1.1/DTD/svg11.dtd">
<svg version="1.1" xmlns="http://www.w3.org/2000/svg" xmlns:xlink="http://www.w3.org/1999/xlink" width="96" height="96" viewBox="0 0 96 96">
<g>
	<line stroke-width="1" x1="" y1="" x2="" y2="" stroke="#449FDB" opacity=""></line>
</g>
	<path d="M76 12h-56c-4.4 0-8 3.6-8 8v56c0 4.4 3.6 8 8 8h56c4.4 0 8-3.6 8-8v-56c0-4.4-3.6-8-8-8zM39.2 53.6v14.4h-7.2v-40h17.2c6 0 8.8 1.2 11.2 3.6 2.8 2.4 3.6 5.6 3.6 9.2 0 4-1.2 7.2-3.6 9.2s-5.2 3.2-11.2 3.2h-10z" fill="#000000"></path>
	<path d="M39.2 48v-14.4h9.2c2.8 0 4.8 0.8 6 2.4s2 2.8 2 4.8c0 2.4-0.8 3.6-2 5.2-1.2 1.2-2.8 2-5.6 2h-9.6z" fill="#000000"></path>
</svg>
