<?xml version="1.0" encoding="utf-8"?>
<!-- Generated by IcoMoon.io -->
<!DOCTYPE svg PUBLIC "-//W3C//DTD SVG 1.1//EN" "http://www.w3.org/Graphics/SVG/1.1/DTD/svg11.dtd">
<svg version="1.1" xmlns="http://www.w3.org/2000/svg" xmlns:xlink="http://www.w3.org/1999/xlink" width="96" height="96" viewBox="0 0 96 96">
<g>
	<line stroke-width="1" x1="" y1="" x2="" y2="" stroke="#449FDB" opacity=""></line>
</g>
	<path d="M55.273 44.446c-0.587 0.513-0.879 1.111-0.879 1.803 0 0.604 0.196 1.085 0.593 1.44 0.396 0.355 0.959 0.531 1.692 0.531 0.899 0 1.722-0.224 2.438-0.674 0.718-0.45 1.164-0.964 1.445-1.539v-2.32h-2.859c-1.033 0-1.844 0.246-2.43 0.758z" fill="#000000"></path>
	<path d="M39.995 39.75l-3.135 9.094h6.313l-3.092-9.094z" fill="#000000"></path>
	<path d="M76.001 12h-56.001c-4.417 0-8 3.582-8 8v55.999c0 4.418 3.582 8.001 8 8.001h55.999c4.417 0 8.001-3.583 8.001-7.999v-56.001c0-4.417-3.584-8-7.999-8zM45.87 56.813l-1.686-5.063h-8.349l-1.7 5.063h-3.603l7.838-21.375h3.369l7.749 21.375h-3.618zM61.031 50.813v-0.044c-0.094-0.4-0.225-0.791-0.31-1.172-0.082-0.381-0.134-0.762-0.164-1.143-0.489 0.743-1.129 1.365-1.925 1.868s-1.685 0.754-2.673 0.754c-1.649 0-2.918-0.425-3.799-1.274-0.885-0.851-1.327-2.018-1.327-3.501 0-1.534 0.607-2.728 1.816-3.582 1.211-0.855 2.915-1.281 5.112-1.281h2.799v-1.392c0-0.831-0.259-1.479-0.746-1.949-0.489-0.469-1.194-0.703-2.101-0.703-0.811 0-1.461 0.185-1.937 0.576-0.478 0.392-0.723 0.937-0.723 1.499h-3.428l-0.015-0.078c-0.069-1.249 0.491-2.353 1.677-3.321s2.73-1.448 4.636-1.448c1.844 0 3.349 0.469 4.485 1.408 1.134 0.939 1.715 2.286 1.715 4.044v7.046c0 0.655 0.027 1.304 0.116 1.905 0.088 0.601 0.212 1.132 0.409 1.788h-3.62z" fill="#000000"></path>
</svg>
