<?xml version="1.0" encoding="utf-8"?>
<!-- Generated by IcoMoon.io -->
<!DOCTYPE svg PUBLIC "-//W3C//DTD SVG 1.1//EN" "http://www.w3.org/Graphics/SVG/1.1/DTD/svg11.dtd">
<svg version="1.1" xmlns="http://www.w3.org/2000/svg" xmlns:xlink="http://www.w3.org/1999/xlink" width="96" height="96" viewBox="0 0 96 96">
<g>
	<line stroke-width="1" x1="" y1="" x2="" y2="" stroke="#449FDB" opacity=""></line>
</g>
	<path d="M76.001 12h-56.001c-4.417 0-8 3.582-8 8v55.999c0 4.418 3.582 8.001 8 8.001h55.999c4.417 0 8.001-3.583 8.001-7.999v-56.001c0-4.417-3.584-8-7.999-8zM31.264 48.594l-0.278 0.043v0.089l0.278 0.045 8.467 3.208v3.56l-12.261-5.449v-2.857l12.261-5.449v3.544l-8.467 3.267zM45.093 58.6h-3.267l8.394-23.159h3.268l-8.394 23.159zM55.961 45.283v-3.501l12.658 5.449v2.857l-12.658 5.449v-3.501l8.862-3.326 0.264-0.030 0.015-0.089-0.278-0.060-8.862-3.249z" fill="#000000"></path>
</svg>
