<?xml version="1.0" encoding="utf-8"?>
<!-- Generated by IcoMoon.io -->
<!DOCTYPE svg PUBLIC "-//W3C//DTD SVG 1.1//EN" "http://www.w3.org/Graphics/SVG/1.1/DTD/svg11.dtd">
<svg version="1.1" xmlns="http://www.w3.org/2000/svg" xmlns:xlink="http://www.w3.org/1999/xlink" width="96" height="96" viewBox="0 0 96 96">
<g>
	<line stroke-width="1" x1="" y1="" x2="" y2="" stroke="#449FDB" opacity=""></line>
</g>
	<path d="M41.994 31.958h2.002v2.002h-2.002v-2.002z" fill="#000000"></path>
	<path d="M52.005 31.958h2.001v2.002h-2.001v-2.002z" fill="#000000"></path>
	<path d="M76 12.094h-56c-4.4 0-8 3.6-8 8v56c0 4.4 3.6 8 8 8h56c4.4 0 8-3.6 8-8v-56c0-4.4-3.6-8-8-8zM33.986 56.982c0 1.602-1.402 3.003-3.004 3.003s-3.003-1.401-3.003-3.003v-14.013c0-1.602 1.401-3.003 3.003-3.003s3.004 1.401 3.004 3.003v14.013zM60.013 59.989c0 1.202-0.8 2.001-2.002 2.001h-2.002v7.008c0 1.602-1.401 3.003-3.003 3.003s-3.003-1.401-3.003-3.003v-7.008h-4.005v7.008c0 1.602-1.401 3.003-3.003 3.003s-3.003-1.401-3.003-3.003v-7.008h-2.002c-1.201 0-2.002-0.798-2.002-2.001v-20.022h24.025v20.022zM35.987 37.965c0-4.004 2.002-7.408 4.806-9.61l-2.603-2.603c-0.2-0.401-0.2-1.202 0-1.602 0.4-0.2 1.201-0.2 1.602 0l2.802 3.003c1.602-0.801 3.404-1.201 5.406-1.201s3.803 0.4 5.206 1.401l3.003-3.003c0.401-0.401 1.004-0.401 1.401 0 0.401 0.4 0.401 1 0 1.401l-2.602 2.603c3.003 2.002 5.005 5.606 5.005 9.61h-24.026zM68.021 56.982c0 1.602-1.401 3.003-3.003 3.003s-3.003-1.401-3.003-3.003v-14.013c0-1.602 1.401-3.003 3.003-3.003s3.003 1.401 3.003 3.003v14.013z" fill="#000000"></path>
</svg>
