<?xml version="1.0" encoding="utf-8"?>
<!-- Generated by IcoMoon.io -->
<!DOCTYPE svg PUBLIC "-//W3C//DTD SVG 1.1//EN" "http://www.w3.org/Graphics/SVG/1.1/DTD/svg11.dtd">
<svg version="1.1" xmlns="http://www.w3.org/2000/svg" xmlns:xlink="http://www.w3.org/1999/xlink" width="96" height="96" viewBox="0 0 96 96">
<g>
	<line stroke-width="1" x1="" y1="" x2="" y2="" stroke="#449FDB" opacity=""></line>
</g>
	<path d="M48 8c-22 0-40 18-40 40s18 40 40 40c22 0 40-18 40-40s-18-40-40-40zM48 80.8c-4.4 0-8.8-0.8-12.8-2.4-2.4-6-2.4-10.4 4.4-8.4 0 0 15.6 6 32 0.4-5.6 6.4-14 10.4-23.6 10.4zM76.4 64.4c-3.6 1.6-8.4 4-16 4s-14-3.2-22.4-5.6c-7.6-2.4-10.4-6-15.2-6-2.8 0-4 2.8-4.8 4.8-2-4-3.2-8.8-3.2-13.6 0-3.2 0.4-6.4 1.2-9.2 5.2-6.4 12.8-10.4 24-1.6 0 0 24.8 18.8 39.2 20-0.4 2.4-1.6 4.8-2.8 7.2zM49.6 30.4c-11.2-10.8-20.4-7.6-24.4-6 2.8-2.8 6.4-5.2 10.4-6.8 11.2-0.4 23.6 1.6 30.4 11.6 0 0 9.6 16.8 13.2 9.2 0.8 2.8 1.2 6 1.2 9.2 0 1.2 0 2.4 0 3.6-8-0.8-19.2-10-30.8-20.8z" fill="#000000"></path>
</svg>
