<?xml version="1.0" encoding="utf-8"?>
<!-- Generated by IcoMoon.io -->
<!DOCTYPE svg PUBLIC "-//W3C//DTD SVG 1.1//EN" "http://www.w3.org/Graphics/SVG/1.1/DTD/svg11.dtd">
<svg version="1.1" xmlns="http://www.w3.org/2000/svg" xmlns:xlink="http://www.w3.org/1999/xlink" width="96" height="96" viewBox="0 0 96 96">
<g>
	<line stroke-width="1" x1="" y1="" x2="" y2="" stroke="#449FDB" opacity=""></line>
</g>
	<path d="M82 44h-6v-16c0-4.4-3.6-8-8-8h-16v-6c0-5.6-4.4-10-10-10s-10 4.4-10 10v6h-16c-4.4 0-8 3.6-8 8v15.2h6c6 0 10.8 4.8 10.8 10.8s-4.8 10.8-10.8 10.8h-6v15.2c0 4.4 3.6 8 8 8h15.2v-6c0-6 4.8-10.8 10.8-10.8s10.8 4.8 10.8 10.8v6h15.2c4.4 0 8-3.6 8-8v-16h6c5.6 0 10-4.4 10-10s-4.4-10-10-10z" fill="#000000"></path>
</svg>
