<?xml version="1.0" encoding="utf-8"?>
<!-- Generated by IcoMoon.io -->
<!DOCTYPE svg PUBLIC "-//W3C//DTD SVG 1.1//EN" "http://www.w3.org/Graphics/SVG/1.1/DTD/svg11.dtd">
<svg version="1.1" xmlns="http://www.w3.org/2000/svg" xmlns:xlink="http://www.w3.org/1999/xlink" width="96" height="96" viewBox="0 0 96 96">
<g>
	<line stroke-width="1" x1="" y1="" x2="" y2="" stroke="#449FDB" opacity=""></line>
</g>
	<path d="M66 12c-6.8 0-13.6 3.2-18 8.4-4.4-5.2-11.2-8.4-18-8.4-12.4 0-22 9.6-22 22 0 15.2 13.6 27.6 34.4 46l5.6 5.2 5.6-5.2c20.4-18.8 34.4-31.2 34.4-46 0-12.4-9.6-22-22-22zM48.4 74.4h-0.4l-0.4-0.4c-19.2-17.2-31.6-28.4-31.6-40 0-8 6-14 14-14 6 0 12 4 14.4 9.6h7.6c2-5.6 8-9.6 14-9.6 8 0 14 6 14 14 0 11.6-12.4 22.8-31.6 40.4z" fill="#000000"></path>
</svg>
