<?xml version="1.0" encoding="utf-8"?>
<!-- Generated by IcoMoon.io -->
<!DOCTYPE svg PUBLIC "-//W3C//DTD SVG 1.1//EN" "http://www.w3.org/Graphics/SVG/1.1/DTD/svg11.dtd">
<svg version="1.1" xmlns="http://www.w3.org/2000/svg" xmlns:xlink="http://www.w3.org/1999/xlink" width="96" height="96" viewBox="0 0 96 96">
<g>
	<line stroke-width="1" x1="" y1="" x2="" y2="" stroke="#449FDB" opacity=""></line>
</g>
	<path d="M36 28h-8v8h8v-8zM36 44h-8v8h8v-8zM36 12c-4.4 0-8 3.6-8 8h8v-8zM52 60h-8v8h8v-8zM76 12v8h8c0-4.4-3.6-8-8-8zM52 12h-8v8h8v-8zM36 68v-8h-8c0 4.4 3.6 8 8 8zM76 52h8v-8h-8v8zM76 36h8v-8h-8v8zM76 68c4.4 0 8-3.6 8-8h-8v8zM20 28h-8v48c0 4.4 3.6 8 8 8h48v-8h-48v-48zM60 20h8v-8h-8v8zM60 68h8v-8h-8v8z" fill="#000000"></path>
</svg>
