<?xml version="1.0" encoding="utf-8"?>
<!-- Generated by IcoMoon.io -->
<!DOCTYPE svg PUBLIC "-//W3C//DTD SVG 1.1//EN" "http://www.w3.org/Graphics/SVG/1.1/DTD/svg11.dtd">
<svg version="1.1" xmlns="http://www.w3.org/2000/svg" xmlns:xlink="http://www.w3.org/1999/xlink" width="96" height="96" viewBox="0 0 96 96">
<g>
	<line stroke-width="1" x1="" y1="" x2="" y2="" stroke="#449FDB" opacity=""></line>
</g>
	<path d="M80 24h-32l-8-8h-24c-4.4 0-8 3.6-8 8v48c0 4.4 3.6 8 8 8h64c4.4 0 8-3.6 8-8v-40c0-4.4-3.6-8-8-8zM60 36c4.4 0 8 3.6 8 8s-3.6 8-8 8c-4.4 0-8-3.6-8-8s3.6-8 8-8zM76 68h-32v-4c0-5.2 10.8-8 16-8s16 2.8 16 8v4z" fill="#000000"></path>
</svg>
