<?xml version="1.0" encoding="utf-8"?>
<!-- Generated by IcoMoon.io -->
<!DOCTYPE svg PUBLIC "-//W3C//DTD SVG 1.1//EN" "http://www.w3.org/Graphics/SVG/1.1/DTD/svg11.dtd">
<svg version="1.1" xmlns="http://www.w3.org/2000/svg" xmlns:xlink="http://www.w3.org/1999/xlink" width="96" height="96" viewBox="0 0 96 96">
<g>
	<line stroke-width="1" x1="" y1="" x2="" y2="" stroke="#449FDB" opacity=""></line>
</g>
	<path d="M80 24h-32l-8-8h-24c-4.4 0-8 3.6-8 8v48c0 4.4 3.6 8 8 8h64c4.4 0 8-3.6 8-8v-40c0-4.4-3.6-8-8-8zM46.8 68l-5.2-8.4 11.2-20 6 10.8-9.6 17.6h-2.4zM73.2 68h-22l5.6-10h20.4l1.2 2-5.2 8zM55.2 36h9.6l11.2 20h-12l-10.4-18 1.6-2z" fill="#000000"></path>
</svg>
