<?xml version="1.0" encoding="utf-8"?>
<!-- Generated by IcoMoon.io -->
<!DOCTYPE svg PUBLIC "-//W3C//DTD SVG 1.1//EN" "http://www.w3.org/Graphics/SVG/1.1/DTD/svg11.dtd">
<svg version="1.1" xmlns="http://www.w3.org/2000/svg" xmlns:xlink="http://www.w3.org/1999/xlink" width="96" height="96" viewBox="0 0 96 96">
<g>
	<line stroke-width="1" x1="" y1="" x2="" y2="" stroke="#449FDB" opacity=""></line>
</g>
	<path d="M18.4 27.6c2.8-2.8 5.6-5.6 6.8-4.8 2 0.8 0 4-1.2 6-1.2 1.6-11.6 15.6-11.6 25.2 0 5.2 2 9.2 5.2 12 3.2 2.4 6.8 2.8 10.4 2 4.4-1.2 7.6-5.6 12.4-11.2 4.8-6 11.2-13.6 16.4-13.6 6.4 0 6.4 4 7.2 7.2-15.2 2.4-21.6 14.8-21.6 21.6s5.6 12.4 12.8 12.4c6.4 0 17.2-5.2 18.8-24.4h10v-10h-10c-0.8-6.4-4.4-16.8-16-16.8-8.8 0-16.8 7.6-19.6 11.2-2.4 2.8-8.4 10-9.2 10.8-1.2 1.2-2.8 3.2-4.4 3.2s-2.8-3.2-1.6-7.6c1.6-4.4 5.6-11.6 7.6-14 2.8-4.8 4.8-8 4.8-13.2 0-8.8-6.4-11.6-10-11.6-5.2 0-9.6 4-10.8 5.2s-2.4 2.4-3.6 3.6l7.2 6.8zM55.6 74.4c-1.2 0-2.8-1.2-2.8-2.8 0-2.4 2.8-8.8 11.6-11.2-1.6 10.8-6 14-8.8 14z" fill="#000000"></path>
</svg>
