<?xml version="1.0" encoding="utf-8"?>
<!-- Generated by IcoMoon.io -->
<!DOCTYPE svg PUBLIC "-//W3C//DTD SVG 1.1//EN" "http://www.w3.org/Graphics/SVG/1.1/DTD/svg11.dtd">
<svg version="1.1" xmlns="http://www.w3.org/2000/svg" xmlns:xlink="http://www.w3.org/1999/xlink" width="96" height="96" viewBox="0 0 96 96">
<g>
	<line stroke-width="1" x1="" y1="" x2="" y2="" stroke="#449FDB" opacity=""></line>
</g>
	<path d="M65.2 53.6l-4.4-3.2c-1.6-1.2-3.2-2.8-3.2-5.6s2-5.2 4-6.4c5.2-4 10.4-8.4 10.4-17.2 0-8.4-5.2-13.2-8-15.6h6.8l4.8-5.6h-24.8c-17.6 0-26.4 11.2-26.4 23.2 0 9.2 7.2 19.2 20 19.2h3.2c-0.4 1.2-1.6 3.2-1.6 5.2 0 4 1.6 5.6 3.6 8-5.6 0.4-16 1.6-23.6 6.4-7.2 4.4-9.2 10.4-9.2 14.8 0 9.2 8.4 18 26.4 18 21.6 0 32-12 32-23.6 0-8.4-4.4-12.8-10-17.6zM34.8 17.2c0-8.8 5.2-12.8 10.8-12.8 10.4 0 16 14 16 22 0 10.4-8.4 12.4-11.6 12.4-10 0-15.2-12.4-15.2-21.6zM49.2 89.2c-13.2 0-21.6-6-21.6-14.8s8-11.6 10.4-12.8c5.2-1.6 12-2 13.2-2s2 0 2.8 0c9.6 6.8 13.6 9.6 13.6 16 0 7.6-7.6 13.6-18.4 13.6z" fill="#000000"></path>
</svg>
