<?xml version="1.0" encoding="utf-8"?>
<!-- Generated by IcoMoon.io -->
<!DOCTYPE svg PUBLIC "-//W3C//DTD SVG 1.1//EN" "http://www.w3.org/Graphics/SVG/1.1/DTD/svg11.dtd">
<svg version="1.1" xmlns="http://www.w3.org/2000/svg" xmlns:xlink="http://www.w3.org/1999/xlink" width="96" height="96" viewBox="0 0 96 96">
<g>
	<line stroke-width="1" x1="" y1="" x2="" y2="" stroke="#449FDB" opacity=""></line>
</g>
	<path d="M64 44c6.8 0 12-5.2 12-12s-5.2-12-12-12c-6.8 0-12 5.2-12 12s5.2 12 12 12zM32 44c6.8 0 12-5.2 12-12s-5.2-12-12-12c-6.8 0-12 5.2-12 12s5.2 12 12 12zM32 52c-9.2 0-28 4.8-28 14v10h56v-10c0-9.2-18.8-14-28-14zM64 52c-1.2 0-2.4 0-4 0.4 4.8 3.2 8 8 8 13.6v10h24v-10c0-9.2-18.8-14-28-14z" fill="#000000"></path>
</svg>
