<?xml version="1.0" encoding="utf-8"?>
<!-- Generated by IcoMoon.io -->
<!DOCTYPE svg PUBLIC "-//W3C//DTD SVG 1.1//EN" "http://www.w3.org/Graphics/SVG/1.1/DTD/svg11.dtd">
<svg version="1.1" xmlns="http://www.w3.org/2000/svg" xmlns:xlink="http://www.w3.org/1999/xlink" width="96" height="96" viewBox="0 0 96 96">
<g>
	<line stroke-width="1" x1="" y1="" x2="" y2="" stroke="#449FDB" opacity=""></line>
</g>
	<path d="M32 40h-12v-12h-8v12h-12v8h12v12h8v-12h12v-8zM72 44c6.8 0 12-5.2 12-12s-5.2-12-12-12c-1.2 0-2.4 0.4-3.6 0.4 2.4 3.6 3.6 7.2 3.6 11.6s-1.2 8-3.6 11.6c1.2 0 2.4 0.4 3.6 0.4zM52 44c6.8 0 12-5.2 12-12s-5.2-12-12-12c-6.8 0-12 5.2-12 12s5.2 12 12 12zM78.4 52.8c3.2 2.8 5.6 6.8 5.6 11.2v8h12v-8c0-6-9.6-10-17.6-11.2zM52 52c-8 0-24 4-24 12v8h48v-8c0-8-16-12-24-12z" fill="#000000"></path>
</svg>
