<?xml version="1.0" encoding="utf-8"?>
<!-- Generated by IcoMoon.io -->
<!DOCTYPE svg PUBLIC "-//W3C//DTD SVG 1.1//EN" "http://www.w3.org/Graphics/SVG/1.1/DTD/svg11.dtd">
<svg version="1.1" xmlns="http://www.w3.org/2000/svg" xmlns:xlink="http://www.w3.org/1999/xlink" width="96" height="96" viewBox="0 0 96 96">
<g>
	<line stroke-width="1" x1="" y1="" x2="" y2="" stroke="#449FDB" opacity=""></line>
</g>
	<path d="M80 16h-48.8l16 16h8.8v8.8l2.4 2.4 13.6-11.2v24.8l16 16c0-0.4 0-0.4 0-0.8v-48c0-4.4-3.6-8-8-8zM9.2 4l-5.2 5.2 8 8c-2.4 1.2-4 4-4 6.8v48c0 4.4 3.6 8 8 8h58.8l8 8 5.2-5.2-78.8-78.8zM24 32h2.8l29.2 29.2v2.8h-32v-32z" fill="#000000"></path>
</svg>
