<?xml version="1.0" encoding="utf-8"?>
<!-- Generated by IcoMoon.io -->
<!DOCTYPE svg PUBLIC "-//W3C//DTD SVG 1.1//EN" "http://www.w3.org/Graphics/SVG/1.1/DTD/svg11.dtd">
<svg version="1.1" xmlns="http://www.w3.org/2000/svg" xmlns:xlink="http://www.w3.org/1999/xlink" width="96" height="96" viewBox="0 0 96 96">
<g>
	<line stroke-width="1" x1="" y1="" x2="" y2="" stroke="#449FDB" opacity=""></line>
</g>
	<path d="M48 8c-22 0-40 18-40 40s18 40 40 40c22 0 40-18 40-40s-18-40-40-40zM52 76h-8v-8h8v8zM60.4 45.2l-3.6 3.6c-3.2 2.8-4.8 5.2-4.8 11.2h-8v-2c0-4.4 1.6-8.4 4.8-11.2l4.8-5.2c1.6-1.2 2.4-3.2 2.4-5.6 0-4.4-3.6-8-8-8s-8 3.6-8 8h-8c0-8.8 7.2-16 16-16s16 7.2 16 16c0 3.6-1.6 6.8-3.6 9.2z" fill="#000000"></path>
</svg>
