<?xml version="1.0" encoding="utf-8"?>
<!-- Generated by IcoMoon.io -->
<!DOCTYPE svg PUBLIC "-//W3C//DTD SVG 1.1//EN" "http://www.w3.org/Graphics/SVG/1.1/DTD/svg11.dtd">
<svg version="1.1" xmlns="http://www.w3.org/2000/svg" xmlns:xlink="http://www.w3.org/1999/xlink" width="96" height="96" viewBox="0 0 96 96">
<g>
	<line stroke-width="1" x1="" y1="" x2="" y2="" stroke="#449FDB" opacity=""></line>
</g>
	<path d="M76 16h-56c-4.4 0-8 3.6-8 8v48c0 4.4 3.6 8 8 8h56c4.4 0 8-3.6 8-8v-48c0-4.4-3.6-8-8-8zM44 60h-6v-8h-8v8h-6v-24h6v10h8v-10h6v24zM72 56c0 2.4-1.6 4-4 4h-3.2v6h-6v-6h-2.8c-2.4 0-4-1.6-4-4v-16c0-2.4 1.6-4 4-4h12c2.4 0 4 1.6 4 4v16zM58 54h8v-12h-8v12z" fill="#000000"></path>
</svg>
