<?xml version="1.0" encoding="utf-8"?>
<!-- Generated by IcoMoon.io -->
<!DOCTYPE svg PUBLIC "-//W3C//DTD SVG 1.1//EN" "http://www.w3.org/Graphics/SVG/1.1/DTD/svg11.dtd">
<svg version="1.1" xmlns="http://www.w3.org/2000/svg" xmlns:xlink="http://www.w3.org/1999/xlink" width="96" height="96" viewBox="0 0 96 96">
<g>
	<line stroke-width="1" x1="" y1="" x2="" y2="" stroke="#449FDB" opacity=""></line>
</g>
	<path d="M50 8c-14 0-26.4 7.6-32.8 19.2l-9.2-9.2v26h26l-11.2-11.2c5.2-10 15.2-16.8 27.2-16.8 16.4 0 30 13.6 30 30s-13.6 30-30 30c-13.2 0-24-8.4-28.4-20h-8.4c4.4 16 19.2 28 36.8 28 21.2 0 38-17.2 38-38s-17.2-38-38-38zM44 28v20.4l18.8 11.2 3.2-5.2-16-9.6v-16.8h-6z" fill="#000000"></path>
</svg>
