<?xml version="1.0" encoding="utf-8"?>
<!-- Generated by IcoMoon.io -->
<!DOCTYPE svg PUBLIC "-//W3C//DTD SVG 1.1//EN" "http://www.w3.org/Graphics/SVG/1.1/DTD/svg11.dtd">
<svg version="1.1" xmlns="http://www.w3.org/2000/svg" xmlns:xlink="http://www.w3.org/1999/xlink" width="96" height="96" viewBox="0 0 96 96">
<g>
	<line stroke-width="1" x1="" y1="" x2="" y2="" stroke="#449FDB" opacity=""></line>
</g>
	<path d="M80 20h-64c-4.4 0-8 3.6-8 8v40c0 4.4 3.6 8 8 8h64c4.4 0 8-3.6 8-8v-40c0-4.4-3.6-8-8-8zM44 32h8v8h-8v-8zM44 44h8v8h-8v-8zM32 32h8v8h-8v-8zM32 44h8v8h-8v-8zM28 52h-8v-8h8v8zM28 40h-8v-8h8v8zM64 68h-32v-8h32v8zM64 52h-8v-8h8v8zM64 40h-8v-8h8v8zM76 52h-8v-8h8v8zM76 40h-8v-8h8v8z" fill="#000000"></path>
</svg>
