<?xml version="1.0" encoding="utf-8"?>
<!-- Generated by IcoMoon.io -->
<!DOCTYPE svg PUBLIC "-//W3C//DTD SVG 1.1//EN" "http://www.w3.org/Graphics/SVG/1.1/DTD/svg11.dtd">
<svg version="1.1" xmlns="http://www.w3.org/2000/svg" xmlns:xlink="http://www.w3.org/1999/xlink" width="96" height="96" viewBox="0 0 96 96">
<g>
	<line stroke-width="1" x1="" y1="" x2="" y2="" stroke="#449FDB" opacity=""></line>
</g>
	<path d="M62 40c3.2 0 6-2.8 6-6s-2.8-6-6-6-6 2.8-6 6 2.8 6 6 6zM34 40c3.2 0 6-2.8 6-6s-2.8-6-6-6c-3.2 0-6 2.8-6 6s2.8 6 6 6zM48 68c10.4 0 19.2-6.8 22.8-16h-45.6c3.6 9.2 12.4 16 22.8 16zM48 4c-22 0-40 18-40 40s18 40 40 40c22 0 40-18 40-40s-18-40-40-40zM48 76c-17.6 0-32-14.4-32-32s14.4-32 32-32c17.6 0 32 14.4 32 32s-14.4 32-32 32z" fill="#000000"></path>
</svg>
