<?xml version="1.0" encoding="utf-8"?>
<!-- Generated by IcoMoon.io -->
<!DOCTYPE svg PUBLIC "-//W3C//DTD SVG 1.1//EN" "http://www.w3.org/Graphics/SVG/1.1/DTD/svg11.dtd">
<svg version="1.1" xmlns="http://www.w3.org/2000/svg" xmlns:xlink="http://www.w3.org/1999/xlink" width="96" height="96" viewBox="0 0 96 96">
<g>
	<line stroke-width="1" x1="" y1="" x2="" y2="" stroke="#449FDB" opacity=""></line>
</g>
	<path d="M48 8c-22 0-40 18-40 40s18 40 40 40c22 0 40-18 40-40s-18-40-40-40zM75.6 32h-11.6c-1.2-5.2-3.2-9.6-5.6-14.4 7.2 2.8 13.6 7.6 17.2 14.4zM48 16c3.2 4.8 6 10 7.6 16h-15.2c1.6-5.6 4.4-11.2 7.6-16zM17.2 56c-0.8-2.4-1.2-5.2-1.2-8s0.4-5.6 1.2-8h13.6c-0.4 2.8-0.4 5.2-0.4 8s0.4 5.2 0.4 8h-13.6zM20.4 64h11.6c1.2 5.2 3.2 9.6 5.6 14.4-7.2-2.8-13.6-7.6-17.2-14.4zM32 32h-11.6c4-6.8 10-11.6 17.2-14.4-2.4 4.8-4.4 9.2-5.6 14.4zM48 80c-3.2-4.8-6-10-7.6-16h15.2c-1.6 5.6-4.4 11.2-7.6 16zM57.2 56h-18.4c-0.4-2.8-0.8-5.2-0.8-8s0.4-5.2 0.8-8h18.8c0.4 2.8 0.8 5.2 0.8 8s-0.8 5.2-1.2 8zM58.4 78.4c2.4-4.4 4.4-9.2 5.6-14.4h11.6c-3.6 6.8-10 11.6-17.2 14.4zM65.6 56c0.4-2.8 0.4-5.2 0.4-8s-0.4-5.2-0.4-8h13.6c0.8 2.4 1.2 5.2 1.2 8s-0.4 5.6-1.2 8h-13.6z" fill="#000000"></path>
</svg>
