<?xml version="1.0" encoding="utf-8"?>
<!-- Generated by IcoMoon.io -->
<!DOCTYPE svg PUBLIC "-//W3C//DTD SVG 1.1//EN" "http://www.w3.org/Graphics/SVG/1.1/DTD/svg11.dtd">
<svg version="1.1" xmlns="http://www.w3.org/2000/svg" xmlns:xlink="http://www.w3.org/1999/xlink" width="96" height="96" viewBox="0 0 96 96">
<g>
	<line stroke-width="1" x1="" y1="" x2="" y2="" stroke="#449FDB" opacity=""></line>
</g>
	<path d="M32 52h32v-8h-32v8zM15.6 48c0-9.2 7.2-16.4 16.4-16.4h12v-7.6h-12c-13.2 0-24 10.8-24 24s10.8 24 24 24h12v-7.6h-12c-9.2 0-16.4-7.2-16.4-16.4zM64 24h-12v7.6h12c9.2 0 16.4 7.2 16.4 16.4s-7.2 16.4-16.4 16.4h-12v7.6h12c13.2 0 24-10.8 24-24s-10.8-24-24-24z" fill="#000000"></path>
</svg>
