<?xml version="1.0" encoding="utf-8"?>
<!-- Generated by IcoMoon.io -->
<!DOCTYPE svg PUBLIC "-//W3C//DTD SVG 1.1//EN" "http://www.w3.org/Graphics/SVG/1.1/DTD/svg11.dtd">
<svg version="1.1" xmlns="http://www.w3.org/2000/svg" xmlns:xlink="http://www.w3.org/1999/xlink" width="96" height="96" viewBox="0 0 96 96">
<g>
	<line stroke-width="1" x1="" y1="" x2="" y2="" stroke="#449FDB" opacity=""></line>
</g>
	<path d="M83.6 44c-2-16.8-15.2-30-31.6-31.6v-8.4h-8v8.4c-4.4 0.4-8.8 1.6-12.8 3.6l6 6c3.6-1.2 7.2-2 10.8-2 15.6 0 28 12.4 28 28 0 3.6-0.8 7.2-2 10.8l6 6c2-4 3.2-8 4-12.8h8v-8h-8.4zM12 17.2l8 8c-4 5.2-6.8 11.6-7.6 18.8h-8.4v8h8.4c2 16.8 15.2 30 31.6 31.6v8.4h8v-8.4c7.2-0.8 13.6-3.6 18.8-8l8 8 5.2-5.2-66.8-66.4-5.2 5.2zM65.2 70c-4.8 4-10.8 6-17.2 6-15.6 0-28-12.4-28-28 0-6.4 2-12.4 6-17.2l39.2 39.2z" fill="#000000"></path>
</svg>
