<?xml version="1.0" encoding="utf-8"?>
<!-- Generated by IcoMoon.io -->
<!DOCTYPE svg PUBLIC "-//W3C//DTD SVG 1.1//EN" "http://www.w3.org/Graphics/SVG/1.1/DTD/svg11.dtd">
<svg version="1.1" xmlns="http://www.w3.org/2000/svg" xmlns:xlink="http://www.w3.org/1999/xlink" width="96" height="96" viewBox="0 0 96 96">
<g>
	<line stroke-width="1" x1="" y1="" x2="" y2="" stroke="#449FDB" opacity=""></line>
</g>
	<path d="M83.6 44c-2-16.8-15.2-30-31.6-31.6v-8.4h-8v8.4c-16.8 1.6-30 14.8-31.6 31.6h-8.4v8h8.4c2 16.8 15.2 30 31.6 31.6v8.4h8v-8.4c16.8-2 30-15.2 31.6-31.6h8.4v-8h-8.4zM48 76c-15.6 0-28-12.4-28-28s12.4-28 28-28c15.6 0 28 12.4 28 28s-12.4 28-28 28z" fill="#000000"></path>
</svg>
