<?xml version="1.0" encoding="utf-8"?>
<!-- Generated by IcoMoon.io -->
<!DOCTYPE svg PUBLIC "-//W3C//DTD SVG 1.1//EN" "http://www.w3.org/Graphics/SVG/1.1/DTD/svg11.dtd">
<svg version="1.1" xmlns="http://www.w3.org/2000/svg" xmlns:xlink="http://www.w3.org/1999/xlink" width="96" height="96" viewBox="0 0 96 96">
<g>
	<line stroke-width="1" x1="" y1="" x2="" y2="" stroke="#449FDB" opacity=""></line>
</g>
	<path d="M60 44v-24l-12-12-12 12v8h-24v56h72v-40h-24zM28 76h-8v-8h8v8zM28 60h-8v-8h8v8zM28 44h-8v-8h8v8zM52 76h-8v-8h8v8zM52 60h-8v-8h8v8zM52 44h-8v-8h8v8zM52 28h-8v-8h8v8zM76 76h-8v-8h8v8zM76 60h-8v-8h8v8z" fill="#000000"></path>
</svg>
