<?xml version="1.0" encoding="utf-8"?>
<!-- Generated by IcoMoon.io -->
<!DOCTYPE svg PUBLIC "-//W3C//DTD SVG 1.1//EN" "http://www.w3.org/Graphics/SVG/1.1/DTD/svg11.dtd">
<svg version="1.1" xmlns="http://www.w3.org/2000/svg" xmlns:xlink="http://www.w3.org/1999/xlink" width="96" height="96" viewBox="0 0 96 96">
<g>
	<line stroke-width="1" x1="" y1="" x2="" y2="" stroke="#449FDB" opacity=""></line>
</g>
	<path d="M72 32h-4v-8c0-11.2-8.8-20-20-20s-20 8.8-20 20v8h-4c-4.4 0-8 3.6-8 8v40c0 4.4 3.6 8 8 8h48c4.4 0 8-3.6 8-8v-40c0-4.4-3.6-8-8-8zM48 68c-4.4 0-8-3.6-8-8s3.6-8 8-8c4.4 0 8 3.6 8 8s-3.6 8-8 8zM60.4 32h-24.8v-8c0-6.8 5.6-12.4 12.4-12.4s12.4 5.6 12.4 12.4v8z" fill="#000000"></path>
</svg>
