<?xml version="1.0" encoding="utf-8"?>
<!-- Generated by IcoMoon.io -->
<!DOCTYPE svg PUBLIC "-//W3C//DTD SVG 1.1//EN" "http://www.w3.org/Graphics/SVG/1.1/DTD/svg11.dtd">
<svg version="1.1" xmlns="http://www.w3.org/2000/svg" xmlns:xlink="http://www.w3.org/1999/xlink" width="96" height="96" viewBox="0 0 96 96">
<g>
	<line stroke-width="1" x1="" y1="" x2="" y2="" stroke="#449FDB" opacity=""></line>
</g>
	<path d="M48 16v-12l-16 16 16 16v-12c13.2 0 24 10.8 24 24 0 4-1.2 8-2.8 11.2l6 6c2.8-5.2 4.8-10.8 4.8-17.2 0-17.6-14.4-32-32-32zM48 72c-13.2 0-24-10.8-24-24 0-4 1.2-8 2.8-11.2l-6-6c-2.8 5.2-4.8 10.8-4.8 17.2 0 17.6 14.4 32 32 32v12l16-16-16-16v12z" fill="#000000"></path>
</svg>
