<?xml version="1.0" encoding="utf-8"?>
<!-- Generated by IcoMoon.io -->
<!DOCTYPE svg PUBLIC "-//W3C//DTD SVG 1.1//EN" "http://www.w3.org/Graphics/SVG/1.1/DTD/svg11.dtd">
<svg version="1.1" xmlns="http://www.w3.org/2000/svg" xmlns:xlink="http://www.w3.org/1999/xlink" width="96" height="96" viewBox="0 0 96 96">
<g>
	<line stroke-width="1" x1="" y1="" x2="" y2="" stroke="#449FDB" opacity=""></line>
</g>
	<path d="M82 12c-0.4 0-0.4 0-0.8 0l-21.2 8.4-24-8.4-22.4 7.6c-0.8 0.4-1.6 0.8-1.6 2v60.4c0 1.2 0.8 2 2 2 0.4 0 0.4 0 0.8 0l21.2-8.4 24 8.4 22.4-7.6c0.8-0.4 1.6-1.2 1.6-2v-60.4c0-1.2-0.8-2-2-2zM60 76l-24-8.4v-47.6l24 8.4v47.6z" fill="#000000"></path>
</svg>
