<?xml version="1.0" encoding="utf-8"?>
<!-- Generated by IcoMoon.io -->
<!DOCTYPE svg PUBLIC "-//W3C//DTD SVG 1.1//EN" "http://www.w3.org/Graphics/SVG/1.1/DTD/svg11.dtd">
<svg version="1.1" xmlns="http://www.w3.org/2000/svg" xmlns:xlink="http://www.w3.org/1999/xlink" width="96" height="96" viewBox="0 0 96 96">
<g>
	<line stroke-width="1" x1="" y1="" x2="" y2="" stroke="#449FDB" opacity=""></line>
</g>
	<path d="M76 48h-6.8c0 2.8-0.8 5.6-1.6 8l4.8 4.8c2.4-3.6 3.6-8 3.6-12.8z" fill="#000000"></path>
	<path d="M60 48.8c0-0.4 0-0.4 0-0.8v-24c0-6.8-5.2-12-12-12s-12 5.2-12 12v0.8l24 24z" fill="#000000"></path>
	<path d="M17.2 16l-5.2 5.2 24 24v2.8c0 6.8 5.2 12 12 12 0.8 0 1.6 0 2.8-0.4l6.8 6.8c-2.8 1.2-6 2-9.2 2-11.2 0-21.2-8.4-21.2-20.4h-7.2c0 13.6 10.8 24.8 24 26.8v13.2h8v-13.2c3.6-0.4 7.2-2 10-3.6l16.8 16.8 5.2-5.2-66.8-66.8z" fill="#000000"></path>
</svg>
