<?xml version="1.0" encoding="utf-8"?>
<!-- Generated by IcoMoon.io -->
<!DOCTYPE svg PUBLIC "-//W3C//DTD SVG 1.1//EN" "http://www.w3.org/Graphics/SVG/1.1/DTD/svg11.dtd">
<svg version="1.1" xmlns="http://www.w3.org/2000/svg" xmlns:xlink="http://www.w3.org/1999/xlink" width="96" height="96" viewBox="0 0 96 96">
<g>
	<line stroke-width="1" x1="" y1="" x2="" y2="" stroke="#449FDB" opacity=""></line>
</g>
	<path d="M48 8c-22 0-40 18-40 40s18 40 40 40c22 0 40-18 40-40s-18-40-40-40zM62 32c3.2 0 6 2.8 6 6s-2.8 6-6 6c-3.2 0-6-2.8-6-6s2.8-6 6-6zM34 32c3.2 0 6 2.8 6 6s-2.8 6-6 6c-3.2 0-6-2.8-6-6s2.8-6 6-6zM48 72c-10.4 0-19.2-6.8-22.4-16h44.8c-3.2 9.2-12 16-22.4 16z" fill="#000000"></path>
</svg>
