<?xml version="1.0" encoding="utf-8"?>
<!-- Generated by IcoMoon.io -->
<!DOCTYPE svg PUBLIC "-//W3C//DTD SVG 1.1//EN" "http://www.w3.org/Graphics/SVG/1.1/DTD/svg11.dtd">
<svg version="1.1" xmlns="http://www.w3.org/2000/svg" xmlns:xlink="http://www.w3.org/1999/xlink" width="96" height="96" viewBox="0 0 96 96">
<g>
	<line stroke-width="1" x1="" y1="" x2="" y2="" stroke="#449FDB" opacity=""></line>
</g>
	<path d="M48 8c-22 0-40 18-40 40s18 40 40 40c22 0 40-18 40-40s-18-40-40-40zM48 20c6.4 0 12 2 16.8 5.6l-8.8 8.8c-2.4-1.6-5.2-2.4-8-2.4-8.8 0-16 7.2-16 16 0 4.4 1.6 8.4 4.8 11.2l-8.4 8.4c-5.2-4.8-8.4-12-8.4-19.6 0-15.6 12.4-28 28-28zM67.6 67.6l-8.4-8.4c2.8-2.8 4.8-6.8 4.8-11.2 0-2.8-0.8-5.6-2.4-8l8.8-8.8c3.6 4.8 5.6 10.4 5.6 16.8 0 7.6-3.2 14.8-8.4 19.6z" fill="#000000"></path>
</svg>
