<?xml version="1.0" encoding="utf-8"?>
<!-- Generated by IcoMoon.io -->
<!DOCTYPE svg PUBLIC "-//W3C//DTD SVG 1.1//EN" "http://www.w3.org/Graphics/SVG/1.1/DTD/svg11.dtd">
<svg version="1.1" xmlns="http://www.w3.org/2000/svg" xmlns:xlink="http://www.w3.org/1999/xlink" width="96" height="96" viewBox="0 0 96 96">
<g>
	<line stroke-width="1" x1="" y1="" x2="" y2="" stroke="#449FDB" opacity=""></line>
</g>
	<path d="M81.2 18.8l-6.4-6.8-6.8 6.8-6.8-6.8-6.8 6.8-6.4-6.8-6.8 6.8-6.4-6.8-6.8 6.8-6.8-6.8-6.4 6.8-6.8-6.8v64c0 4.4 3.6 8 8 8h64c4.4 0 8-3.6 8-8v-64l-6.8 6.8zM48 76h-32v-28h32v28zM80 76h-28v-4h28v4zM80 68h-28v-4h28v4zM80 60h-28v-4h28v4zM80 52h-28v-4h28v4zM80 44h-64v-12h64v12z" fill="#000000"></path>
</svg>
