<?xml version="1.0" encoding="utf-8"?>
<!-- Generated by IcoMoon.io -->
<!DOCTYPE svg PUBLIC "-//W3C//DTD SVG 1.1//EN" "http://www.w3.org/Graphics/SVG/1.1/DTD/svg11.dtd">
<svg version="1.1" xmlns="http://www.w3.org/2000/svg" xmlns:xlink="http://www.w3.org/1999/xlink" width="96" height="96" viewBox="0 0 96 96">
<g>
	<line stroke-width="1" x1="" y1="" x2="" y2="" stroke="#449FDB" opacity=""></line>
</g>
	<path d="M80 8h-64c-4.4 0-8 3.6-8 8v64c0 4.4 3.6 8 8 8h64c4.4 0 8-3.6 8-8v-64c0-4.4-3.6-8-8-8zM80 80h-64v-64h64v64zM72 24h-20c-4.4 0-8 3.6-8 8v9.2c-2.4 1.2-4 4-4 6.8 0 4.4 3.6 8 8 8s8-3.6 8-8c0-2.8-1.6-5.6-4-6.8v-9.2h12v32h-32v-32h8v-8h-16v48h48v-48z" fill="#000000"></path>
</svg>
