<?xml version="1.0" encoding="utf-8"?>
<!-- Generated by IcoMoon.io -->
<!DOCTYPE svg PUBLIC "-//W3C//DTD SVG 1.1//EN" "http://www.w3.org/Graphics/SVG/1.1/DTD/svg11.dtd">
<svg version="1.1" xmlns="http://www.w3.org/2000/svg" xmlns:xlink="http://www.w3.org/1999/xlink" width="96" height="96" viewBox="0 0 96 96">
<g>
	<line stroke-width="1" x1="" y1="" x2="" y2="" stroke="#449FDB" opacity=""></line>
</g>
	<path d="M46 88c4.4 0 8-3.6 8-8h-16c0 4.4 3.6 8 8 8zM72 64v-22c0-12.4-8.4-22.4-20-25.2v-2.8c0-3.2-2.8-6-6-6s-6 2.8-6 6v2.8c-11.6 2.8-20 12.8-20 25.2v22l-8 8v4h68v-4l-8-8zM64 68h-36v-26c0-10 8-18 18-18s18 8 18 18v26z" fill="#000000"></path>
</svg>
