<?xml version="1.0" encoding="utf-8"?>
<!-- Generated by IcoMoon.io -->
<!DOCTYPE svg PUBLIC "-//W3C//DTD SVG 1.1//EN" "http://www.w3.org/Graphics/SVG/1.1/DTD/svg11.dtd">
<svg version="1.1" xmlns="http://www.w3.org/2000/svg" xmlns:xlink="http://www.w3.org/1999/xlink" width="96" height="96" viewBox="0 0 96 96">
<g>
	<line stroke-width="1" x1="" y1="" x2="" y2="" stroke="#449FDB" opacity=""></line>
</g>
	<path d="M26.4 14.4l-5.6-5.6c-9.6 7.2-16 18.4-16.8 31.2h8c0.8-10.8 6-20 14.4-25.6zM80 40h8c-0.8-12.8-6.8-24-16.4-31.2l-5.6 5.6c8 5.6 13.2 14.8 14 25.6zM72 42c0-12.4-8.4-22.4-20-25.2v-2.8c0-3.2-2.8-6-6-6s-6 2.8-6 6v2.8c-11.6 2.8-20 12.8-20 25.2v22l-8 8v4h68v-4l-8-8v-22zM46 88c0.4 0 1.2 0 1.6 0 2.8-0.4 4.8-2.4 5.6-4.8 0.4-0.8 0.8-2 0.8-3.2h-16c0 4.4 3.6 8 8 8z" fill="#000000"></path>
</svg>
