<?xml version="1.0" encoding="utf-8"?>
<!-- Generated by IcoMoon.io -->
<!DOCTYPE svg PUBLIC "-//W3C//DTD SVG 1.1//EN" "http://www.w3.org/Graphics/SVG/1.1/DTD/svg11.dtd">
<svg version="1.1" xmlns="http://www.w3.org/2000/svg" xmlns:xlink="http://www.w3.org/1999/xlink" width="96" height="96" viewBox="0 0 96 96">
<g>
	<line stroke-width="1" x1="" y1="" x2="" y2="" stroke="#449FDB" opacity=""></line>
</g>
	<path d="M12 20v24h20l-4-16 16 4v-20h-24c-4.4 0-8 3.6-8 8zM32 52h-20v24c0 4.4 3.6 8 8 8h24v-19.2l-16 3.2 4-16zM68 68l-16-3.2v19.2h24c4.4 0 8-3.6 8-8v-24h-19.2l3.2 16zM76 12h-24v20l16-4-4 16h20v-24c0-4.4-3.6-8-8-8z" fill="#000000"></path>
</svg>
