<?xml version="1.0" encoding="utf-8"?>
<!-- Generated by IcoMoon.io -->
<!DOCTYPE svg PUBLIC "-//W3C//DTD SVG 1.1//EN" "http://www.w3.org/Graphics/SVG/1.1/DTD/svg11.dtd">
<svg version="1.1" xmlns="http://www.w3.org/2000/svg" xmlns:xlink="http://www.w3.org/1999/xlink" width="96" height="96" viewBox="0 0 96 96">
<g>
	<line stroke-width="1" x1="" y1="" x2="" y2="" stroke="#449FDB" opacity=""></line>
</g>
	<path d="M48 12c-20 0-36 16-36 36s16 36 36 36c3.2 0 6-2.8 6-6 0-1.6-0.4-2.8-1.6-4-0.8-1.2-1.6-2.4-1.6-4 0-3.2 2.8-6 6-6h7.2c11.2 0 20-8.8 20-20 0-17.6-16-32-36-32zM26 48c-3.2 0-6-2.8-6-6s2.8-6 6-6c3.2 0 6 2.8 6 6s-2.8 6-6 6zM38 32c-3.2 0-6-2.8-6-6s2.8-6 6-6c3.2 0 6 2.8 6 6s-2.8 6-6 6zM58 32c-3.2 0-6-2.8-6-6s2.8-6 6-6c3.2 0 6 2.8 6 6s-2.8 6-6 6zM70 48c-3.2 0-6-2.8-6-6s2.8-6 6-6c3.2 0 6 2.8 6 6s-2.8 6-6 6z" fill="#000000"></path>
</svg>
