<?xml version="1.0" encoding="utf-8"?>
<!-- Generated by IcoMoon.io -->
<!DOCTYPE svg PUBLIC "-//W3C//DTD SVG 1.1//EN" "http://www.w3.org/Graphics/SVG/1.1/DTD/svg11.dtd">
<svg version="1.1" xmlns="http://www.w3.org/2000/svg" xmlns:xlink="http://www.w3.org/1999/xlink" width="96" height="96" viewBox="0 0 96 96">
<g>
	<line stroke-width="1" x1="" y1="" x2="" y2="" stroke="#449FDB" opacity=""></line>
</g>
	<path d="M48 23.6c4.8 0 8.4 3.6 8.4 8.4s-3.6 8.4-8.4 8.4-8.4-3.6-8.4-8.4 3.6-8.4 8.4-8.4zM48 59.6c12 0 24.4 6 24.4 8.4v4.4h-48.8v-4.4c0-2.4 12.4-8.4 24.4-8.4zM48 16c-8.8 0-16 7.2-16 16s7.2 16 16 16c8.8 0 16-7.2 16-16s-7.2-16-16-16v0zM48 52c-10.8 0-32 5.2-32 16v12h64v-12c0-10.8-21.2-16-32-16v0z" fill="#000000"></path>
</svg>
