<?xml version="1.0" encoding="utf-8"?>
<!-- Generated by IcoMoon.io -->
<!DOCTYPE svg PUBLIC "-//W3C//DTD SVG 1.1//EN" "http://www.w3.org/Graphics/SVG/1.1/DTD/svg11.dtd">
<svg version="1.1" xmlns="http://www.w3.org/2000/svg" xmlns:xlink="http://www.w3.org/1999/xlink" width="96" height="96" viewBox="0 0 96 96">
<g>
	<line stroke-width="1" x1="" y1="" x2="" y2="" stroke="#449FDB" opacity=""></line>
</g>
	<path d="M80 62c-4.8 0-9.6-0.8-14.4-2.4-1.2-0.4-2.8 0-4 0.8l-8.8 8.8c-11.2-5.6-20.4-15.2-26.4-26.4l8.8-8.8c1.2-1.2 1.6-2.8 0.8-4-1.2-4.4-2-9.2-2-14 0-2.4-1.6-4-4-4h-14c-2.4 0-4 1.6-4 4 0 37.6 30.4 68 68 68 2.4 0 4-1.6 4-4v-14c0-2.4-1.6-4-4-4zM80 16v-2c0-5.6-4.4-10-10-10s-10 4.4-10 10v2c-2.4 0-4 1.6-4 4v16c0 2.4 1.6 4 4 4h20c2.4 0 4-1.6 4-4v-16c0-2.4-1.6-4-4-4zM76.8 16h-13.6v-2c0-3.6 3.2-6.8 6.8-6.8s6.8 3.2 6.8 6.8v2z" fill="#000000"></path>
</svg>
