<?xml version="1.0" encoding="utf-8"?>
<!-- Generated by IcoMoon.io -->
<!DOCTYPE svg PUBLIC "-//W3C//DTD SVG 1.1//EN" "http://www.w3.org/Graphics/SVG/1.1/DTD/svg11.dtd">
<svg version="1.1" xmlns="http://www.w3.org/2000/svg" xmlns:xlink="http://www.w3.org/1999/xlink" width="96" height="96" viewBox="0 0 96 96">
<g>
	<line stroke-width="1" x1="" y1="" x2="" y2="" stroke="#449FDB" opacity=""></line>
</g>
	<path d="M26.4 43.2c5.6 11.2 15.2 20.4 26.4 26.4l8.8-8.8c1.2-1.2 2.8-1.6 4-0.8 4.4 1.6 9.2 2.4 14.4 2.4 2.4 0 4 1.6 4 4v13.6c0 2.4-1.6 4-4 4-37.6 0-68-30.4-68-68 0-2.4 1.6-4 4-4h14c2.4 0 4 1.6 4 4 0 4.8 0.8 9.6 2.4 14.4 0.4 1.2 0 2.8-0.8 4l-9.2 8.8z" fill="#000000"></path>
</svg>
