<?xml version="1.0" encoding="utf-8"?>
<!-- Generated by IcoMoon.io -->
<!DOCTYPE svg PUBLIC "-//W3C//DTD SVG 1.1//EN" "http://www.w3.org/Graphics/SVG/1.1/DTD/svg11.dtd">
<svg version="1.1" xmlns="http://www.w3.org/2000/svg" xmlns:xlink="http://www.w3.org/1999/xlink" width="96" height="96" viewBox="0 0 96 96">
<g>
	<line stroke-width="1" x1="" y1="" x2="" y2="" stroke="#449FDB" opacity=""></line>
</g>
	<path d="M80 62c-4.8 0-9.6-0.8-14.4-2.4-1.2-0.4-2.8 0-4 0.8l-8.8 8.8c-11.2-5.6-20.4-15.2-26.4-26.4l8.8-8.8c1.2-1.2 1.6-2.8 0.8-4-1.2-4.4-2-9.2-2-14 0-2.4-1.6-4-4-4h-14c-2.4 0-4 1.6-4 4 0 37.6 30.4 68 68 68 2.4 0 4-1.6 4-4v-14c0-2.4-1.6-4-4-4zM76 48h8c0-20-16-36-36-36v8c15.6 0 28 12.4 28 28zM60 48h8c0-11.2-8.8-20-20-20v8c6.8 0 12 5.2 12 12z" fill="#000000"></path>
</svg>
