<?xml version="1.0" encoding="utf-8"?>
<!-- Generated by IcoMoon.io -->
<!DOCTYPE svg PUBLIC "-//W3C//DTD SVG 1.1//EN" "http://www.w3.org/Graphics/SVG/1.1/DTD/svg11.dtd">
<svg version="1.1" xmlns="http://www.w3.org/2000/svg" xmlns:xlink="http://www.w3.org/1999/xlink" width="96" height="96" viewBox="0 0 96 96">
<g>
	<line stroke-width="1" x1="" y1="" x2="" y2="" stroke="#449FDB" opacity=""></line>
</g>
	<path d="M48 48.8c4.8 0 8.8-4 8.8-8.8s-4-8.8-8.8-8.8c-4.8 0-8.8 4-8.8 8.8s4 8.8 8.8 8.8zM66 64.8c0-6-12-8.8-18-8.8s-18 3.2-18 8.8v3.2h36v-3.2zM76 12h-56c-4.4 0-8 3.6-8 8v56c0 4.4 3.6 8 8 8h56c4.4 0 8-3.6 8-8v-56c0-4.4-3.6-8-8-8zM76 76h-56v-56h56v56z" fill="#000000"></path>
</svg>
