<?xml version="1.0" encoding="utf-8"?>
<!-- Generated by IcoMoon.io -->
<!DOCTYPE svg PUBLIC "-//W3C//DTD SVG 1.1//EN" "http://www.w3.org/Graphics/SVG/1.1/DTD/svg11.dtd">
<svg version="1.1" xmlns="http://www.w3.org/2000/svg" xmlns:xlink="http://www.w3.org/1999/xlink" width="96" height="96" viewBox="0 0 96 96">
<g>
	<line stroke-width="1" x1="" y1="" x2="" y2="" stroke="#449FDB" opacity=""></line>
</g>
	<path d="M80 8h-64c-4.4 0-8 3.6-8 8v64c0 4.4 3.6 8 8 8h64c4.4 0 8-3.6 8-8v-64c0-4.4-3.6-8-8-8zM70.8 37.2c-0.4 18.4-12 31.2-29.6 32-7.2 0.4-12.4-2-17.2-4.8 5.2 0.8 12-1.2 15.6-4.4-5.2-0.4-8.4-3.2-10-7.6 1.6 0.4 3.2 0 4.4 0-4.8-1.6-8-4.4-8.4-10.8 1.2 0.8 2.8 1.2 4.4 1.2-3.6-2-6-9.6-3.2-14.4 5.2 5.6 11.6 10.4 22 11.2-2.8-11.2 12.4-17.2 18.4-9.6 2.8-0.4 4.8-1.6 6.8-2.4-0.8 2.8-2.4 4.4-4.4 6 2-0.4 4-0.8 5.6-1.6-0.4 2-2.4 3.6-4.4 5.2z" fill="#000000"></path>
</svg>
