<?xml version="1.0" encoding="utf-8"?>
<!-- Generated by IcoMoon.io -->
<!DOCTYPE svg PUBLIC "-//W3C//DTD SVG 1.1//EN" "http://www.w3.org/Graphics/SVG/1.1/DTD/svg11.dtd">
<svg version="1.1" xmlns="http://www.w3.org/2000/svg" xmlns:xlink="http://www.w3.org/1999/xlink" width="96" height="96" viewBox="0 0 96 96">
<g>
	<line stroke-width="1" x1="" y1="" x2="" y2="" stroke="#449FDB" opacity=""></line>
</g>
	<path d="M44.8 35.6c0-4-2.4-12-8.4-12-2.4 0-5.2 1.6-5.2 6.8 0 4.8 2.4 11.6 8 11.6 0 0 5.6-0.4 5.6-6.4zM42.4 55.2c-0.4 0-0.8 0-1.2 0v0c-1.2 0-4.8 0.4-7.2 1.2-2.8 0.8-6 2.8-6 6.8 0 4.4 4 8.8 12 8.8 6 0 9.6-4 9.6-8 0-2.8-2-4.8-7.2-8.8zM80 8h-64c-4.4 0-8 3.6-8 8v64c0 4.4 3.6 8 8 8h64c4.4 0 8-3.6 8-8v-64c0-4.4-3.6-8-8-8zM36.4 76.8c-11.2 0-16.4-6.4-16.4-12 0-2 0.4-6.4 6-9.6 3.2-2 7.2-3.2 12.4-3.6-0.8-0.8-1.2-2-1.2-4 0-0.8 0-1.2 0.4-2h-1.6c-8 0-12.8-6-12.8-12 0-6.8 5.2-14.4 16.4-14.4h16.8l-4.4 4.4h-2.8c1.6 1.6 3.6 4.4 3.6 8.8 0 5.6-2.8 8.4-6.4 10.8-0.8 0.4-1.6 1.6-1.6 2.8s0.8 2 1.6 2.4c0.4 0.4 1.2 0.8 2 1.2 3.2 2.4 7.6 5.2 7.6 11.6 0 7.2-5.2 15.6-19.6 15.6zM76 48h-8v8h-4v-8h-8v-4h8v-8h4v8h8v4z" fill="#000000"></path>
</svg>
