<?xml version="1.0" encoding="utf-8"?>
<!-- Generated by IcoMoon.io -->
<!DOCTYPE svg PUBLIC "-//W3C//DTD SVG 1.1//EN" "http://www.w3.org/Graphics/SVG/1.1/DTD/svg11.dtd">
<svg version="1.1" xmlns="http://www.w3.org/2000/svg" xmlns:xlink="http://www.w3.org/1999/xlink" width="96" height="96" viewBox="0 0 96 96">
<g>
	<line stroke-width="1" x1="" y1="" x2="" y2="" stroke="#449FDB" opacity=""></line>
</g>
	<path d="M80 8h-64c-4.4 0-8 3.6-8 8v64c0 4.4 3.6 8 8 8h64c4.4 0 8-3.6 8-8v-64c0-4.4-3.6-8-8-8zM48 32c8.8 0 16 7.2 16 16s-7.2 16-16 16c-8.8 0-16-7.2-16-16s7.2-16 16-16zM18 80c-1.2 0-2-0.8-2-2v-34h8.4c-0.4 1.2-0.4 2.8-0.4 4 0 13.2 10.8 24 24 24s24-10.8 24-24c0-1.2 0-2.8-0.4-4h8.4v34c0 1.2-0.8 2-2 2h-60zM80 26c0 1.2-0.8 2-2 2h-8c-1.2 0-2-0.8-2-2v-8c0-1.2 0.8-2 2-2h8c1.2 0 2 0.8 2 2v8z" fill="#000000"></path>
</svg>
