<?xml version="1.0" encoding="utf-8"?>
<!-- Generated by IcoMoon.io -->
<!DOCTYPE svg PUBLIC "-//W3C//DTD SVG 1.1//EN" "http://www.w3.org/Graphics/SVG/1.1/DTD/svg11.dtd">
<svg version="1.1" xmlns="http://www.w3.org/2000/svg" xmlns:xlink="http://www.w3.org/1999/xlink" width="96" height="96" viewBox="0 0 96 96">
<g>
	<line stroke-width="1" x1="" y1="" x2="" y2="" stroke="#449FDB" opacity=""></line>
</g>
	<path d="M80 8h-64c-4.4 0-8 3.6-8 8v64c0 4.4 3.6 8 8 8h64c4.4 0 8-3.6 8-8v-64c0-4.4-3.6-8-8-8zM52 64.8c-3.2 0-6.4-1.2-8.4-3.6l-4 12.8-0.4 0.8c-0.8 1.2-2 2-3.6 2-2.4 0-4.4-2-4.4-4.4 0-0.4 0-0.4 0-0.4v0l0.4-0.8 7.2-22.4c0 0-0.8-2.4-0.8-6 0-6.8 3.6-8.8 6.8-8.8 2.8 0 5.6 1.2 5.6 5.2 0 5.2-3.6 8-3.6 12 0 2.8 2.4 5.2 5.2 5.2 9.2 0 12.8-7.2 12.8-13.6 0-8.8-7.6-16-16.8-16s-16.8 7.2-16.8 16c0 2.8 0.8 5.2 2 7.6 0.4 0.8 0.4 1.2 0.4 2 0 2.4-1.6 4-4 4-1.6 0-2.8-0.8-3.6-2-2-3.6-3.2-7.6-3.2-12 0-13.2 11.2-24 24.8-24s24.8 10.8 24.8 24c0.4 11.2-6 22.4-20.4 22.4z" fill="#000000"></path>
</svg>
