<?xml version="1.0" encoding="utf-8"?>
<!-- Generated by IcoMoon.io -->
<!DOCTYPE svg PUBLIC "-//W3C//DTD SVG 1.1//EN" "http://www.w3.org/Graphics/SVG/1.1/DTD/svg11.dtd">
<svg version="1.1" xmlns="http://www.w3.org/2000/svg" xmlns:xlink="http://www.w3.org/1999/xlink" width="96" height="96" viewBox="0 0 96 96">
<g>
	<line stroke-width="1" x1="" y1="" x2="" y2="" stroke="#449FDB" opacity=""></line>
</g>
	<path d="M80 8h-64c-4.4 0-8 3.6-8 8v64c0 4.4 3.6 8 8 8h64c4.4 0 8-3.6 8-8v-64c0-4.4-3.6-8-8-8zM64 44h-12c0 0 0 15.2 0 15.6 0 2.8 0.4 4.4 4.4 4.4 3.6 0 7.6 0 7.6 0v12c0 0-4 0.4-8.4 0.4-10.4 0-15.6-6.4-15.6-13.6 0-4.8 0-18.8 0-18.8h-8v-11.2c9.6-0.8 10.4-8 11.2-12.8h8.8v12h12v12z" fill="#000000"></path>
</svg>
