<?xml version="1.0" encoding="utf-8"?>
<!-- Generated by IcoMoon.io -->
<!DOCTYPE svg PUBLIC "-//W3C//DTD SVG 1.1//EN" "http://www.w3.org/Graphics/SVG/1.1/DTD/svg11.dtd">
<svg version="1.1" xmlns="http://www.w3.org/2000/svg" xmlns:xlink="http://www.w3.org/1999/xlink" width="96" height="96" viewBox="0 0 96 96">
<g>
	<line stroke-width="1" x1="" y1="" x2="" y2="" stroke="#449FDB" opacity=""></line>
</g>
	<path d="M80 8h-64c-4.4 0-8 3.6-8 8v64c0 4.4 3.6 8 8 8h64c4.4 0 8-3.6 8-8v-64c0-4.4-3.6-8-8-8zM76 16v12h-8c-2.4 0-4 1.6-4 4v8h12v12h-12v28h-12v-28h-8v-12h8v-10c0-7.6 6.4-14 14-14h10z" fill="#000000"></path>
</svg>
