<?xml version="1.0" encoding="utf-8"?>
<!-- Generated by IcoMoon.io -->
<!DOCTYPE svg PUBLIC "-//W3C//DTD SVG 1.1//EN" "http://www.w3.org/Graphics/SVG/1.1/DTD/svg11.dtd">
<svg version="1.1" xmlns="http://www.w3.org/2000/svg" xmlns:xlink="http://www.w3.org/1999/xlink" width="96" height="96" viewBox="0 0 96 96">
<g>
	<line stroke-width="1" x1="" y1="" x2="" y2="" stroke="#449FDB" opacity=""></line>
</g>
	<path d="M48 8c-22 0-40 18-40 40s18 40 40 40c22 0 40-18 40-40s-18-40-40-40zM44 79.6c-15.6-2-28-15.6-28-31.6 0-2.4 0.4-4.8 0.8-7.2l19.2 19.2v4c0 4.4 3.6 8 8 8v7.6zM71.6 69.6c-1.2-3.2-4-5.6-7.6-5.6h-4v-12c0-2.4-1.6-4-4-4h-24v-8h8c2.4 0 4-1.6 4-4v-8h8c4.4 0 8-3.6 8-8v-1.6c11.6 4.8 20 16.4 20 29.6 0 8.4-3.2 16-8.4 21.6z" fill="#000000"></path>
</svg>
