<?xml version="1.0" encoding="utf-8"?>
<!-- Generated by IcoMoon.io -->
<!DOCTYPE svg PUBLIC "-//W3C//DTD SVG 1.1//EN" "http://www.w3.org/Graphics/SVG/1.1/DTD/svg11.dtd">
<svg version="1.1" xmlns="http://www.w3.org/2000/svg" xmlns:xlink="http://www.w3.org/1999/xlink" width="96" height="96" viewBox="0 0 96 96">
<g>
	<line stroke-width="1" x1="" y1="" x2="" y2="" stroke="#449FDB" opacity=""></line>
</g>
	<path d="M67.6 52c5.2-5.2 8.4-12 8.4-20 0-15.6-12.4-28-28-28s-28 12.4-28 28c0 8 3.2 14.8 8.4 20v0l14 14-18.4 18.4 5.6 5.6 38-38zM62 46v0l-14 14.4-14-14c-3.6-4-6-8.8-6-14.4 0-11.2 8.8-20 20-20s20 8.8 20 20c0 5.6-2.4 10.4-6 14v0zM53.6 77.2l12.8 12.8 5.6-5.6-12.8-12.8-5.6 5.6z" fill="#000000"></path>
</svg>
