<?xml version="1.0" encoding="utf-8"?>
<!-- Generated by IcoMoon.io -->
<!DOCTYPE svg PUBLIC "-//W3C//DTD SVG 1.1//EN" "http://www.w3.org/Graphics/SVG/1.1/DTD/svg11.dtd">
<svg version="1.1" xmlns="http://www.w3.org/2000/svg" xmlns:xlink="http://www.w3.org/1999/xlink" width="96" height="96" viewBox="0 0 96 96">
<g>
	<line stroke-width="1" x1="" y1="" x2="" y2="" stroke="#449FDB" opacity=""></line>
</g>
	<path d="M94.8 66.8c-12-11.6-28.8-18.8-46.8-18.8s-34.8 7.2-46.8 18.8c-0.8 0.8-1.2 1.6-1.2 2.8s0.4 2 1.2 2.8l10 10c0.8 0.8 1.6 1.2 2.8 1.2s2-0.4 2.8-1.2c3.2-2.8 6.8-5.6 10.8-7.6 1.2-0.8 2.4-2 2.4-3.6v-12.4c5.6-2 12-2.8 18.4-2.8s12.4 1.2 18.4 2.8v12.4c0 1.6 0.8 2.8 2.4 3.6 4 2 7.6 4.4 10.8 7.6 0.8 0.8 1.6 1.2 2.8 1.2s2-0.4 2.8-1.2l10-10c0.8-0.8 1.2-1.6 1.2-2.8-0.8-1.2-1.2-2-2-2.8zM84.8 25.2l-5.6-5.6-14.4 14.4 5.6 5.6c0-0.4 13.6-14.4 14.4-14.4zM52 8h-8v20h8v-20zM25.6 39.2l5.6-5.6-14-14.4-6 6c0.8 0 14.4 14 14.4 14z" fill="#000000"></path>
</svg>
