<?xml version="1.0" encoding="utf-8"?>
<!-- Generated by IcoMoon.io -->
<!DOCTYPE svg PUBLIC "-//W3C//DTD SVG 1.1//EN" "http://www.w3.org/Graphics/SVG/1.1/DTD/svg11.dtd">
<svg version="1.1" xmlns="http://www.w3.org/2000/svg" xmlns:xlink="http://www.w3.org/1999/xlink" width="96" height="96" viewBox="0 0 96 96">
<g>
	<line stroke-width="1" x1="" y1="" x2="" y2="" stroke="#449FDB" opacity=""></line>
</g>
	<path d="M28.4 34l-5.6-5.6c-3.6 4.8-6 10-6.4 15.6h8c0.4-3.6 2-6.8 4-10zM24.4 52h-8c0.8 5.6 2.8 10.8 6.4 15.6l5.6-5.6c-2-3.2-3.6-6.4-4-10zM28.4 73.2c4.8 3.6 10 5.6 15.6 6.4v-8c-3.6-0.4-6.8-2-10-4l-5.6 5.6zM52 16.4v-12.4l-18 18 18 18v-15.6c11.2 2 20 11.6 20 23.6s-8.8 21.6-20 23.6v8c15.6-2 28-15.6 28-31.6s-12.4-29.6-28-31.6z" fill="#000000"></path>
</svg>
