<?xml version="1.0" encoding="utf-8"?>
<!-- Generated by IcoMoon.io -->
<!DOCTYPE svg PUBLIC "-//W3C//DTD SVG 1.1//EN" "http://www.w3.org/Graphics/SVG/1.1/DTD/svg11.dtd">
<svg version="1.1" xmlns="http://www.w3.org/2000/svg" xmlns:xlink="http://www.w3.org/1999/xlink" width="96" height="96" viewBox="0 0 96 96">
<g>
	<line stroke-width="1" x1="" y1="" x2="" y2="" stroke="#449FDB" opacity=""></line>
</g>
	<path d="M62 22l-18-18v12.4c-15.6 2-28 15.2-28 31.6s12.4 29.6 28 31.6v-8c-11.2-2-20-11.6-20-23.6s8.8-21.6 20-23.6v15.6l18-18zM79.6 44c-0.8-5.6-2.8-10.8-6.4-15.6l-5.6 5.6c2 3.2 3.6 6.4 4 10h8zM52 71.6v8c5.6-0.8 10.8-2.8 15.6-6.4l-5.6-5.6c-3.2 2-6.4 3.6-10 4zM67.6 62l5.6 5.6c3.6-4.8 6-10 6.4-15.6h-8c-0.4 3.6-2 6.8-4 10z" fill="#000000"></path>
</svg>
