<?xml version="1.0" encoding="utf-8"?>
<!-- Generated by IcoMoon.io -->
<!DOCTYPE svg PUBLIC "-//W3C//DTD SVG 1.1//EN" "http://www.w3.org/Graphics/SVG/1.1/DTD/svg11.dtd">
<svg version="1.1" xmlns="http://www.w3.org/2000/svg" xmlns:xlink="http://www.w3.org/1999/xlink" width="96" height="96" viewBox="0 0 96 96">
<g>
	<line stroke-width="1" x1="" y1="" x2="" y2="" stroke="#449FDB" opacity=""></line>
</g>
	<path d="M66 10c13.2 6 22.4 18.8 24 34h6c-2.4-24.8-22.8-44-48-44-0.8 0-1.6 0-2.8 0l15.2 15.2 5.6-5.2zM40.8 6.8c-2.4-2.4-6-2.4-8.4 0l-25.6 25.6c-2.4 2.4-2.4 6 0 8.4l48 48c2.4 2.4 6 2.4 8.4 0l25.6-25.6c2.4-2.4 2.4-6 0-8.4l-48-48zM59.2 84.8l-48-48 25.6-25.6 48 48-25.6 25.6zM30 86c-13.2-6-22.4-18.8-24-34h-5.6c2 24.8 22.4 44 47.6 44 0.8 0 1.6 0 2.8 0l-15.2-15.2-5.6 5.2z" fill="#000000"></path>
</svg>
