<?xml version="1.0" encoding="utf-8"?>
<!-- Generated by IcoMoon.io -->
<!DOCTYPE svg PUBLIC "-//W3C//DTD SVG 1.1//EN" "http://www.w3.org/Graphics/SVG/1.1/DTD/svg11.dtd">
<svg version="1.1" xmlns="http://www.w3.org/2000/svg" xmlns:xlink="http://www.w3.org/1999/xlink" width="96" height="96" viewBox="0 0 96 96">
<g>
	<line stroke-width="1" x1="" y1="" x2="" y2="" stroke="#449FDB" opacity=""></line>
</g>
	<path d="M84 20h-72c-4.4 0-8 3.6-8 8v40c0 4.4 3.6 8 8 8h72c4.4 0 8-3.6 8-8v-40c0-4.4-3.6-8-8-8zM76 68h-56v-40h56v40zM40 64h16c2.4 0 4-1.6 4-4v-12c0-2.4-1.6-4-4-4v-4c0-4.4-3.6-8-8-8s-8 3.6-8 8v4c-2.4 0-4 1.6-4 4v12c0 2.4 1.6 4 4 4zM43.2 40c0-2.8 2-4.8 4.8-4.8s4.8 2 4.8 4.8v4h-9.6v-4z" fill="#000000"></path>
</svg>
