<?xml version="1.0" encoding="utf-8"?>
<!-- Generated by IcoMoon.io -->
<!DOCTYPE svg PUBLIC "-//W3C//DTD SVG 1.1//EN" "http://www.w3.org/Graphics/SVG/1.1/DTD/svg11.dtd">
<svg version="1.1" xmlns="http://www.w3.org/2000/svg" xmlns:xlink="http://www.w3.org/1999/xlink" width="96" height="96" viewBox="0 0 96 96">
<g>
	<line stroke-width="1" x1="" y1="" x2="" y2="" stroke="#449FDB" opacity=""></line>
</g>
	<path d="M93.2 51.2l-10.4-10.4-5.6 5.6 8.8 8.8-22.8 22.8-45.2-45.2 22.8-22.8 8.4 8.4 5.6-5.6-9.6-9.6c-2.4-2.4-6-2.4-8.4 0l-26 25.2c-2.4 2.4-2.4 6 0 8.4l48 48c2.4 2.4 6 2.4 8.4 0l25.6-25.6c2.4-2 2.4-5.6 0.4-8zM34 82c-13.2-6-22.4-18.8-24-34h-6c2 24.8 22.8 44 47.6 44 0.8 0 1.6 0 2.8 0l-15.2-15.2-5.2 5.2zM64 36h20c2.4 0 4-1.6 4-4v-16c0-2.4-1.6-4-4-4v-2c0-5.6-4.4-10-10-10s-10 4.4-10 10v2c-2.4 0-4 1.6-4 4v16c0 2.4 1.6 4 4 4zM67.2 10c0-3.6 3.2-6.8 6.8-6.8s6.8 3.2 6.8 6.8v2h-13.6v-2z" fill="#000000"></path>
</svg>
