<?xml version="1.0" encoding="utf-8"?>
<!-- Generated by IcoMoon.io -->
<!DOCTYPE svg PUBLIC "-//W3C//DTD SVG 1.1//EN" "http://www.w3.org/Graphics/SVG/1.1/DTD/svg11.dtd">
<svg version="1.1" xmlns="http://www.w3.org/2000/svg" xmlns:xlink="http://www.w3.org/1999/xlink" width="96" height="96" viewBox="0 0 96 96">
<g>
	<line stroke-width="1" x1="" y1="" x2="" y2="" stroke="#449FDB" opacity=""></line>
</g>
	<path d="M62 56h-3.2l-1.2-1.2c4-4.4 6.4-10.4 6.4-16.8 0-14.4-11.6-26-26-26s-26 11.6-26 26 11.6 26 26 26c6.4 0 12.4-2.4 16.8-6.4l1.2 1.2v3.2l20 20 6-6-20-20zM38 56c-10 0-18-8-18-18s8-18 18-18c10 0 18 8 18 18s-8 18-18 18z" fill="#000000"></path>
</svg>
