<?xml version="1.0" encoding="utf-8"?>
<!-- Generated by IcoMoon.io -->
<!DOCTYPE svg PUBLIC "-//W3C//DTD SVG 1.1//EN" "http://www.w3.org/Graphics/SVG/1.1/DTD/svg11.dtd">
<svg version="1.1" xmlns="http://www.w3.org/2000/svg" xmlns:xlink="http://www.w3.org/1999/xlink" width="96" height="96" viewBox="0 0 96 96">
<g>
	<line stroke-width="1" x1="" y1="" x2="" y2="" stroke="#449FDB" opacity=""></line>
</g>
	<path d="M12 20h8v-8c-4.4 0-8 3.6-8 8zM12 52h8v-8h-8v8zM28 84h8v-8h-8v8zM12 36h8v-8h-8v8zM52 12h-8v8h8v-8zM76 12v8h8c0-4.4-3.6-8-8-8zM20 84v-8h-8c0 4.4 3.6 8 8 8zM12 68h8v-8h-8v8zM36 12h-8v8h8v-8zM44 84h8v-8h-8v8zM76 52h8v-8h-8v8zM76 84c4.4 0 8-3.6 8-8h-8v8zM76 36h8v-8h-8v8zM76 68h8v-8h-8v8zM60 84h8v-8h-8v8zM60 20h8v-8h-8v8zM28 68h40v-40h-40v40zM36 36h24v24h-24v-24z" fill="#000000"></path>
</svg>
