<?xml version="1.0" encoding="utf-8"?>
<!-- Generated by IcoMoon.io -->
<!DOCTYPE svg PUBLIC "-//W3C//DTD SVG 1.1//EN" "http://www.w3.org/Graphics/SVG/1.1/DTD/svg11.dtd">
<svg version="1.1" xmlns="http://www.w3.org/2000/svg" xmlns:xlink="http://www.w3.org/1999/xlink" width="96" height="96" viewBox="0 0 96 96">
<g>
	<line stroke-width="1" x1="" y1="" x2="" y2="" stroke="#449FDB" opacity=""></line>
</g>
	<path d="M28 96h8v-8h-8v8zM44 96h8v-8h-8v8zM52 8h-8v40h8v-40zM66.4 17.6l-5.6 5.6c6.4 4.4 11.2 12 11.2 20.8 0 13.2-10.8 24-24 24s-24-10.8-24-24c0-8.8 4.8-16.4 11.6-20.4l-6-6c-8 6-13.6 15.6-13.6 26.4 0 17.6 14.4 32 32 32s32-14.4 32-32c0-10.8-5.6-20.4-13.6-26.4zM60 96h8v-8h-8v8z" fill="#000000"></path>
</svg>
