<?xml version="1.0" encoding="utf-8"?>
<!-- Generated by IcoMoon.io -->
<!DOCTYPE svg PUBLIC "-//W3C//DTD SVG 1.1//EN" "http://www.w3.org/Graphics/SVG/1.1/DTD/svg11.dtd">
<svg version="1.1" xmlns="http://www.w3.org/2000/svg" xmlns:xlink="http://www.w3.org/1999/xlink" width="96" height="96" viewBox="0 0 96 96">
<g>
	<line stroke-width="1" x1="" y1="" x2="" y2="" stroke="#449FDB" opacity=""></line>
</g>
	<path d="M77.6 52c0-1.2 0.4-2.4 0.4-4s0-2.8-0.4-4l8.4-6.8c0.8-0.8 0.8-1.6 0.4-2.4l-8-14c-0.4-0.4-1.2-0.8-2.4-0.4l-10 4c-2-1.6-4.4-2.8-6.8-4l-1.6-10.4c0.4-1.2-0.8-2-1.6-2h-16c-0.8 0-2 0.8-2 1.6l-1.6 10.8c-2.4 0.8-4.4 2.4-6.8 4l-9.6-4c-1.2-0.4-2 0-2.8 0.8l-8 14c-0.4 0.4 0 1.6 0.8 2.4l8.4 6.4c0 1.2-0.4 2.4-0.4 4s0 2.8 0.4 4l-8.4 6.8c-0.8 0.8-0.8 1.6-0.4 2.4l8 14c0.4 0.4 1.2 0.8 2.4 0.4l10-4c2 1.6 4.4 2.8 6.8 4l1.6 10.4c0 0.8 0.8 1.6 2 1.6h16c0.8 0 2-0.8 2-1.6l1.6-10.4c2.4-1.2 4.8-2.4 6.8-4l10 4c0.8 0.4 2 0 2.4-0.8l8-14c0.4-0.8 0.4-2-0.4-2.4l-9.2-6.4zM48 62c-7.6 0-14-6.4-14-14s6.4-14 14-14 14 6.4 14 14-6.4 14-14 14z" fill="#000000"></path>
</svg>
