<?xml version="1.0" encoding="utf-8"?>
<!-- Generated by IcoMoon.io -->
<!DOCTYPE svg PUBLIC "-//W3C//DTD SVG 1.1//EN" "http://www.w3.org/Graphics/SVG/1.1/DTD/svg11.dtd">
<svg version="1.1" xmlns="http://www.w3.org/2000/svg" xmlns:xlink="http://www.w3.org/1999/xlink" width="96" height="96" viewBox="0 0 96 96">
<g>
	<line stroke-width="1" x1="" y1="" x2="" y2="" stroke="#449FDB" opacity=""></line>
</g>
	<path d="M48 40c-4.4 0-8 3.6-8 8s3.6 8 8 8 8-3.6 8-8-3.6-8-8-8zM76 12h-56c-4.4 0-8 3.6-8 8v56c0 4.4 3.6 8 8 8h56c4.4 0 8-3.6 8-8v-56c0-4.4-3.6-8-8-8zM68.8 48c0 0.8 0 2 0 2.8l6 4.8c0.4 0.4 0.8 1.2 0.4 1.6l-5.6 9.6c-0.4 0.8-1.2 0.8-1.6 0.8l-6.8-2.8c-1.6 1.2-3.2 2-4.8 2.8l-1.2 7.6c0 0.8-0.8 1.2-1.2 1.2h-11.2c-0.8 0-1.2-0.4-1.2-1.2l-1.6-7.6c-1.6-0.8-3.2-1.6-4.8-2.8l-6.8 2.8c-0.8 0.4-1.2 0-1.6-0.8l-5.6-9.6c-0.4-0.8 0-1.2 0.4-1.6l6-4.8c0-0.8 0-2 0-2.8s0-2 0-2.8l-6-4.8c-0.4-0.4-0.8-1.2-0.4-1.6l5.6-9.6c0.4-0.8 1.2-0.8 1.6-0.8l6.8 2.8c1.6-0.8 3.2-2 4.8-2.8l1.2-7.6c0-0.8 0.8-1.2 1.2-1.2h11.2c0.8 0 1.2 0.4 1.2 1.2l1.2 7.6c1.6 0.8 3.2 1.6 4.8 2.8l6.8-2.8c0.8-0.4 1.2 0 1.6 0.8l5.6 9.6c0.4 0.8 0 1.2-0.4 1.6l-6 4.8c0.4 0.8 0.4 2 0.4 2.8z" fill="#000000"></path>
</svg>
