<?xml version="1.0" encoding="utf-8"?>
<!-- Generated by IcoMoon.io -->
<!DOCTYPE svg PUBLIC "-//W3C//DTD SVG 1.1//EN" "http://www.w3.org/Graphics/SVG/1.1/DTD/svg11.dtd">
<svg version="1.1" xmlns="http://www.w3.org/2000/svg" xmlns:xlink="http://www.w3.org/1999/xlink" width="96" height="96" viewBox="0 0 96 96">
<g>
	<line stroke-width="1" x1="" y1="" x2="" y2="" stroke="#449FDB" opacity=""></line>
</g>
	<path d="M72 36c-3.2 0-6 1.2-8 3.2l-28.4-16.4c0.4-0.8 0.4-2 0.4-2.8 0-6.8-5.2-12-12-12s-12 5.2-12 12 5.2 12 12 12c3.2 0 6-1.2 8-3.2l28.4 16.4c-0.4 0.8-0.4 2-0.4 2.8s0 2 0.4 2.8l-28.4 16.8c-2-2-4.8-3.2-8-3.2-6.4 0-11.6 5.2-11.6 11.6s5.2 11.6 11.6 11.6c6.4 0 11.6-5.2 11.6-11.6 0-0.8 0-1.6-0.4-2.8l28.4-16.8c2 2 4.8 3.2 8 3.2 6.8 0 12-5.2 12-12s-4.8-11.6-11.6-11.6z" fill="#000000"></path>
</svg>
