<?xml version="1.0" encoding="utf-8"?>
<!-- Generated by IcoMoon.io -->
<!DOCTYPE svg PUBLIC "-//W3C//DTD SVG 1.1//EN" "http://www.w3.org/Graphics/SVG/1.1/DTD/svg11.dtd">
<svg version="1.1" xmlns="http://www.w3.org/2000/svg" xmlns:xlink="http://www.w3.org/1999/xlink" width="96" height="96" viewBox="0 0 96 96">
<g>
	<line stroke-width="1" x1="" y1="" x2="" y2="" stroke="#449FDB" opacity=""></line>
</g>
	<path d="M28 72c-4.4 0-8 3.6-8 8s3.6 8 8 8c4.4 0 8-3.6 8-8s-3.6-8-8-8zM4 8v8h8l14.4 30.4-5.6 9.6c-0.4 1.2-0.8 2.8-0.8 4 0 4.4 3.6 8 8 8h48v-8h-46.4c-0.4 0-0.8-0.4-0.8-0.8 0 0 0-0.4 0-0.4l3.6-6.8h29.6c3.2 0 5.6-1.6 6.8-4l14.4-26c0.8-0.8 0.8-1.2 0.8-2 0-2.4-1.6-4-4-4h-59.2l-3.6-8h-13.2zM68 72c-4.4 0-8 3.6-8 8s3.6 8 8 8c4.4 0 8-3.6 8-8s-3.6-8-8-8z" fill="#000000"></path>
</svg>
