<?xml version="1.0" encoding="utf-8"?>
<!-- Generated by IcoMoon.io -->
<!DOCTYPE svg PUBLIC "-//W3C//DTD SVG 1.1//EN" "http://www.w3.org/Graphics/SVG/1.1/DTD/svg11.dtd">
<svg version="1.1" xmlns="http://www.w3.org/2000/svg" xmlns:xlink="http://www.w3.org/1999/xlink" width="96" height="96" viewBox="0 0 96 96">
<g>
	<line stroke-width="1" x1="" y1="" x2="" y2="" stroke="#449FDB" opacity=""></line>
</g>
	<path d="M68.8 36l-17.6-26.4c-0.8-0.8-2-1.6-3.2-1.6s-2.4 0.4-3.2 1.6l-17.6 26.4h-19.2c-2.4 0-4 1.6-4 4 0 0.4 0 0.8 0 1.2l10 37.2c0.8 3.2 4 6 7.6 6h52c3.6 0 6.8-2.4 7.6-6l10-37.2c0-0.4 0-0.8 0-1.2 0-2.4-1.6-4-4-4h-18.4zM36 36l12-17.6 12 17.6h-24zM48 68c-4.4 0-8-3.6-8-8s3.6-8 8-8c4.4 0 8 3.6 8 8s-3.6 8-8 8z" fill="#000000"></path>
</svg>
