<?xml version="1.0" encoding="utf-8"?>
<!-- Generated by IcoMoon.io -->
<!DOCTYPE svg PUBLIC "-//W3C//DTD SVG 1.1//EN" "http://www.w3.org/Graphics/SVG/1.1/DTD/svg11.dtd">
<svg version="1.1" xmlns="http://www.w3.org/2000/svg" xmlns:xlink="http://www.w3.org/1999/xlink" width="96" height="96" viewBox="0 0 96 96">
<g>
	<line stroke-width="1" x1="" y1="" x2="" y2="" stroke="#449FDB" opacity=""></line>
</g>
	<path d="M32 62c0 3.314-2.686 6-6 6s-6-2.686-6-6c0-3.314 2.686-6 6-6s6 2.686 6 6z" fill="#000000"></path>
	<path d="M76 62c0 3.314-2.686 6-6 6s-6-2.686-6-6c0-3.314 2.686-6 6-6s6 2.686 6 6z" fill="#000000"></path>
	<path d="M75.6 28c-0.8-2.4-3.2-4-5.6-4h-46v-8l-12 12 12 12v-8h46.8l5.2 16h-64v36c0 2.4 1.6 4 4 4h4c2.4 0 4-1.6 4-4v-4h48v4c0 2.4 1.6 4 4 4h4c2.4 0 4-1.6 4-4v-32l-8.4-24zM26 68c-3.2 0-6-2.8-6-6s2.8-6 6-6c3.2 0 6 2.8 6 6s-2.8 6-6 6zM70 68c-3.2 0-6-2.8-6-6s2.8-6 6-6c3.2 0 6 2.8 6 6s-2.8 6-6 6zM64 0v8h-32v8h32v8l12-12-12-12z" fill="#000000"></path>
</svg>
