<?xml version="1.0" encoding="utf-8"?>
<!-- Generated by IcoMoon.io -->
<!DOCTYPE svg PUBLIC "-//W3C//DTD SVG 1.1//EN" "http://www.w3.org/Graphics/SVG/1.1/DTD/svg11.dtd">
<svg version="1.1" xmlns="http://www.w3.org/2000/svg" xmlns:xlink="http://www.w3.org/1999/xlink" width="96" height="96" viewBox="0 0 96 96">
<g>
	<line stroke-width="1" x1="" y1="" x2="" y2="" stroke="#449FDB" opacity=""></line>
</g>
	<path d="M72 38v-14c0-2.4-1.6-4-4-4h-56c-2.4 0-4 1.6-4 4v48c0 2.4 1.6 4 4 4h56c2.4 0 4-1.6 4-4v-14l16 16v-52l-16 16zM27.2 44c0 6 4.8 10.8 10.8 10.8s10.8-4.8 10.8-10.8h-6.8l10-10 10 10h-6c0 10-8 18-18 18s-18-8-18-18h7.2z" fill="#000000"></path>
</svg>
