<?xml version="1.0" encoding="utf-8"?>
<!-- Generated by IcoMoon.io -->
<!DOCTYPE svg PUBLIC "-//W3C//DTD SVG 1.1//EN" "http://www.w3.org/Graphics/SVG/1.1/DTD/svg11.dtd">
<svg version="1.1" xmlns="http://www.w3.org/2000/svg" xmlns:xlink="http://www.w3.org/1999/xlink" width="96" height="96" viewBox="0 0 96 96">
<g>
	<line stroke-width="1" x1="" y1="" x2="" y2="" stroke="#449FDB" opacity=""></line>
</g>
	<path d="M16 48c0 8.8 3.6 16.8 9.6 22.4l-9.6 9.6h24v-24l-8.8 8.8c-4.4-4-7.2-10-7.2-16.8 0-10.4 6.8-19.2 16-22.8v-8c-13.6 3.6-24 16-24 30.8zM80 16h-24v24l8.8-8.8c4.4 4 7.2 10 7.2 16.8 0 10.4-6.8 19.2-16 22.8v8.4c13.6-3.6 24-16 24-30.8 0-8.8-3.6-16.8-9.6-22.4l9.6-10z" fill="#000000"></path>
</svg>
