<?xml version="1.0" encoding="utf-8"?>
<!-- Generated by IcoMoon.io -->
<!DOCTYPE svg PUBLIC "-//W3C//DTD SVG 1.1//EN" "http://www.w3.org/Graphics/SVG/1.1/DTD/svg11.dtd">
<svg version="1.1" xmlns="http://www.w3.org/2000/svg" xmlns:xlink="http://www.w3.org/1999/xlink" width="96" height="96" viewBox="0 0 96 96">
<g>
	<line stroke-width="1" x1="" y1="" x2="" y2="" stroke="#449FDB" opacity=""></line>
</g>
	<path d="M40 25.2v-8c-3.2 0.8-6 2-8.8 4l6 6c0.8-0.8 1.6-1.6 2.8-2zM11.6 21.6l9.6 9.6c-3.2 4.8-5.2 10.4-5.2 16.8 0 8.8 3.6 16.8 9.6 22.4l-9.6 9.6h24v-24l-8.8 8.8c-4.4-4-7.2-10-7.2-16.8 0-4 0.8-7.6 2.8-11.2l32.4 32.4c-0.8 0.4-2 0.8-3.2 1.2v8.4c3.2-0.8 6-2 8.8-4l9.6 9.6 5.2-5.2-63.2-62.8-4.8 5.2zM80 16h-24v24l8.8-8.8c4.4 4 7.2 10 7.2 16.8 0 4-0.8 7.6-2.8 11.2l6 6c2.8-5.2 4.8-10.8 4.8-17.2 0-8.8-3.6-16.8-9.6-22.4l9.6-9.6z" fill="#000000"></path>
</svg>
