<?xml version="1.0" encoding="utf-8"?>
<!-- Generated by IcoMoon.io -->
<!DOCTYPE svg PUBLIC "-//W3C//DTD SVG 1.1//EN" "http://www.w3.org/Graphics/SVG/1.1/DTD/svg11.dtd">
<svg version="1.1" xmlns="http://www.w3.org/2000/svg" xmlns:xlink="http://www.w3.org/1999/xlink" width="96" height="96" viewBox="0 0 96 96">
<g>
	<line stroke-width="1" x1="" y1="" x2="" y2="" stroke="#449FDB" opacity=""></line>
</g>
	<path d="M68 44c2.4 0 4-1.6 4-4s-1.6-4-4-4c-2.4 0-4 1.6-4 4s1.6 4 4 4zM60 64c7.6 0 13.6-5.2 15.2-12h-30.4c1.6 6.8 7.6 12 15.2 12zM52 44c2.4 0 4-1.6 4-4s-1.6-4-4-4c-2.4 0-4 1.6-4 4s1.6 4 4 4zM88 12h-57.6c-2.4 0-4.8 1.2-6.4 3.2l-24 32.8 24 32.8c1.6 2 4 3.2 6.4 3.2h57.6c4.4 0 8-3.6 8-8v-56c0-4.4-3.6-8-8-8zM16 52c-2.4 0-4-1.6-4-4s1.6-4 4-4 4 1.6 4 4c0 2.4-1.6 4-4 4zM60 72c-13.2 0-24-10.8-24-24s10.8-24 24-24c13.2 0 24 10.8 24 24s-10.8 24-24 24z" fill="#000000"></path>
</svg>
