<?xml version="1.0" encoding="utf-8"?>
<!-- Generated by IcoMoon.io -->
<!DOCTYPE svg PUBLIC "-//W3C//DTD SVG 1.1//EN" "http://www.w3.org/Graphics/SVG/1.1/DTD/svg11.dtd">
<svg version="1.1" xmlns="http://www.w3.org/2000/svg" xmlns:xlink="http://www.w3.org/1999/xlink" width="96" height="96" viewBox="0 0 96 96">
<g>
	<line stroke-width="1" x1="" y1="" x2="" y2="" stroke="#449FDB" opacity=""></line>
</g>
	<path d="M8 64v8c11.2 0 20 8.8 20 20h8c0-15.6-12.4-28-28-28zM8 80v12h12c0-6.8-5.2-12-12-12zM8 48v8c20 0 36 16 36 36h8c0-24.4-19.6-44-44-44zM68 4h-40c-4.4 0-8 3.6-8 8v29.6c2.8 0.8 5.6 1.6 8 2.4v-24h40v52h-12c2 4.8 3.2 10.4 3.6 16h8.4c4.4 0 8-3.6 8-8v-68c0-4.4-3.6-8-8-8z" fill="#000000"></path>
</svg>
