<?xml version="1.0" encoding="utf-8"?>
<!-- Generated by IcoMoon.io -->
<!DOCTYPE svg PUBLIC "-//W3C//DTD SVG 1.1//EN" "http://www.w3.org/Graphics/SVG/1.1/DTD/svg11.dtd">
<svg version="1.1" xmlns="http://www.w3.org/2000/svg" xmlns:xlink="http://www.w3.org/1999/xlink" width="96" height="96" viewBox="0 0 96 96">
<g>
	<line stroke-width="1" x1="" y1="" x2="" y2="" stroke="#449FDB" opacity=""></line>
</g>
	<path d="M72 12v8h-8v-8h-32v8h-8v-8h-8v72h8v-8h8v8h32v-8h8v8h8v-72h-8zM32 68h-8v-8h8v8zM32 52h-8v-8h8v8zM32 36h-8v-8h8v8zM72 68h-8v-8h8v8zM72 52h-8v-8h8v8zM72 36h-8v-8h8v8z" fill="#000000"></path>
</svg>
