<?xml version="1.0" encoding="utf-8"?>
<!-- Generated by IcoMoon.io -->
<!DOCTYPE svg PUBLIC "-//W3C//DTD SVG 1.1//EN" "http://www.w3.org/Graphics/SVG/1.1/DTD/svg11.dtd">
<svg version="1.1" xmlns="http://www.w3.org/2000/svg" xmlns:xlink="http://www.w3.org/1999/xlink" width="96" height="96" viewBox="0 0 96 96">
<g>
	<line stroke-width="1" x1="" y1="" x2="" y2="" stroke="#449FDB" opacity=""></line>
</g>
	<path d="M4 84h16v-48h-16v48zM92 40c0-4.4-3.6-8-8-8h-25.2l4-18.4c0-0.4 0-0.8 0-1.2 0-1.6-0.8-3.2-1.6-4.4l-4.4-4-26.4 26.4c-1.6 1.2-2.4 3.2-2.4 5.6v40c0 4.4 3.6 8 8 8h36c3.2 0 6-2 7.2-4.8l12-28.4c0.4-0.8 0.4-2 0.4-2.8v-8h0.4c0 0.4 0 0 0 0z" fill="#000000"></path>
</svg>
