<?xml version="1.0" encoding="utf-8"?>
<!-- Generated by IcoMoon.io -->
<!DOCTYPE svg PUBLIC "-//W3C//DTD SVG 1.1//EN" "http://www.w3.org/Graphics/SVG/1.1/DTD/svg11.dtd">
<svg version="1.1" xmlns="http://www.w3.org/2000/svg" xmlns:xlink="http://www.w3.org/1999/xlink" width="96" height="96" viewBox="0 0 96 96">
<g>
	<line stroke-width="1" x1="" y1="" x2="" y2="" stroke="#449FDB" opacity=""></line>
</g>
	<path d="M60 4h-24v8h24v-8zM44 56h8v-24h-8v24zM76 29.6l6-5.6c-2-2-4-4-6-5.6l-5.6 5.6c-6-4.8-14-8-22.4-8-20 0-36 16-36 36s16 36 36 36 36-16 36-36c0-8.4-2.8-16.4-8-22.4zM48 80c-15.6 0-28-12.4-28-28s12.4-28 28-28c15.6 0 28 12.4 28 28s-12.4 28-28 28z" fill="#000000"></path>
</svg>
