<?xml version="1.0" encoding="utf-8"?>
<!-- Generated by IcoMoon.io -->
<!DOCTYPE svg PUBLIC "-//W3C//DTD SVG 1.1//EN" "http://www.w3.org/Graphics/SVG/1.1/DTD/svg11.dtd">
<svg version="1.1" xmlns="http://www.w3.org/2000/svg" xmlns:xlink="http://www.w3.org/1999/xlink" width="96" height="96" viewBox="0 0 96 96">
<g>
	<line stroke-width="1" x1="" y1="" x2="" y2="" stroke="#449FDB" opacity=""></line>
</g>
	<path d="M75.6 20c-0.8-2.4-3.2-4-5.6-4h-44c-2.8 0-4.8 1.6-5.6 4l-8.4 24v32c0 2.4 1.6 4 4 4h4c2.4 0 4-1.6 4-4v-4h48v4c0 2.4 1.6 4 4 4h4c2.4 0 4-1.6 4-4v-32l-8.4-24zM26 60c-3.2 0-6-2.8-6-6s2.8-6 6-6c3.2 0 6 2.8 6 6s-2.8 6-6 6zM70 60c-3.2 0-6-2.8-6-6s2.8-6 6-6c3.2 0 6 2.8 6 6s-2.8 6-6 6zM20 40l6-18h44l6 18h-56z" fill="#000000"></path>
</svg>
