<?xml version="1.0" encoding="utf-8"?>
<!-- Generated by IcoMoon.io -->
<!DOCTYPE svg PUBLIC "-//W3C//DTD SVG 1.1//EN" "http://www.w3.org/Graphics/SVG/1.1/DTD/svg11.dtd">
<svg version="1.1" xmlns="http://www.w3.org/2000/svg" xmlns:xlink="http://www.w3.org/1999/xlink" width="96" height="96" viewBox="0 0 96 96">
<g>
	<line stroke-width="1" x1="" y1="" x2="" y2="" stroke="#449FDB" opacity=""></line>
</g>
	<path d="M80 40h-12v-4.4c6.8-1.6 12-8 12-15.6h-12v-4c0-2.4-1.6-4-4-4h-32c-2.4 0-4 1.6-4 4v4h-12c0 7.6 5.2 13.6 12 15.6v4.4h-12c0 7.6 5.2 13.6 12 15.6v4.4h-12c0 7.6 5.2 13.6 12 15.6v4.4c0 2.4 1.6 4 4 4h32c2.4 0 4-1.6 4-4v-4.4c6.8-1.6 12-8 12-15.6h-12v-4.4c6.8-2 12-8 12-15.6zM48 76c-4.4 0-8-3.6-8-8s3.6-8 8-8c4.4 0 8 3.6 8 8s-3.6 8-8 8zM48 56c-4.4 0-8-3.6-8-8s3.6-8 8-8c4.4 0 8 3.6 8 8s-3.6 8-8 8zM48 36c-4.4 0-8-3.6-8-8s3.6-8 8-8c4.4 0 8 3.6 8 8s-3.6 8-8 8z" fill="#000000"></path>
</svg>
