<?xml version="1.0" encoding="utf-8"?>
<!-- Generated by IcoMoon.io -->
<!DOCTYPE svg PUBLIC "-//W3C//DTD SVG 1.1//EN" "http://www.w3.org/Graphics/SVG/1.1/DTD/svg11.dtd">
<svg version="1.1" xmlns="http://www.w3.org/2000/svg" xmlns:xlink="http://www.w3.org/1999/xlink" width="96" height="96" viewBox="0 0 96 96">
<g>
	<line stroke-width="1" x1="" y1="" x2="" y2="" stroke="#449FDB" opacity=""></line>
</g>
	<path d="M48 64h20v-6h-20v6zM48 8c-22 0-40 18-40 40s18 40 40 40c22 0 40-18 40-40s-18-40-40-40zM24 32h8v-8h6v8h8v6h-8v8h-6v-8h-8v-6zM48 80c-8.8 0-16.8-3.6-22.8-9.2l45.6-45.6c5.6 6 9.2 14 9.2 22.8 0 17.6-14.4 32-32 32z" fill="#000000"></path>
</svg>
