<?xml version="1.0" encoding="utf-8"?>
<!-- Generated by IcoMoon.io -->
<!DOCTYPE svg PUBLIC "-//W3C//DTD SVG 1.1//EN" "http://www.w3.org/Graphics/SVG/1.1/DTD/svg11.dtd">
<svg version="1.1" xmlns="http://www.w3.org/2000/svg" xmlns:xlink="http://www.w3.org/1999/xlink" width="96" height="96" viewBox="0 0 96 96">
<g>
	<line stroke-width="1" x1="" y1="" x2="" y2="" stroke="#449FDB" opacity=""></line>
</g>
	<path d="M60 28v16h4v8h-12v-32h8l-12-16-12 16h8v32h-12v-8.4c2.8-1.2 4.8-4.4 4.8-7.6 0-4.8-4-8.8-8.8-8.8s-8.8 4-8.8 8.8c0 3.2 2 6.4 4.8 7.6v8.4c0 4.4 3.6 8 8 8h12v12.4c-2.8 1.6-4.8 4.4-4.8 7.6 0 4.8 4 8.8 8.8 8.8s8.8-4 8.8-8.8c0-3.6-2-6.4-4.8-7.6v-12.4h12c4.4 0 8-3.6 8-8v-8h4v-16h-16z" fill="#000000"></path>
</svg>
