<?xml version="1.0" encoding="utf-8"?>
<!-- Generated by IcoMoon.io -->
<!DOCTYPE svg PUBLIC "-//W3C//DTD SVG 1.1//EN" "http://www.w3.org/Graphics/SVG/1.1/DTD/svg11.dtd">
<svg version="1.1" xmlns="http://www.w3.org/2000/svg" xmlns:xlink="http://www.w3.org/1999/xlink" width="96" height="96" viewBox="0 0 96 96">
<g>
	<line stroke-width="1" x1="" y1="" x2="" y2="" stroke="#449FDB" opacity=""></line>
</g>
	<path d="M0 60h8v-24h-8v24zM12 68h8v-40h-8v40zM88 36v24h8v-24h-8zM76 68h8v-40h-8v40zM66 12h-36c-3.2 0-6 2.8-6 6v60c0 3.2 2.8 6 6 6h36c3.2 0 6-2.8 6-6v-60c0-3.2-2.8-6-6-6zM64 76h-32v-56h32v56z" fill="#000000"></path>
</svg>
