<?xml version="1.0" encoding="utf-8"?>
<!-- Generated by IcoMoon.io -->
<!DOCTYPE svg PUBLIC "-//W3C//DTD SVG 1.1//EN" "http://www.w3.org/Graphics/SVG/1.1/DTD/svg11.dtd">
<svg version="1.1" xmlns="http://www.w3.org/2000/svg" xmlns:xlink="http://www.w3.org/1999/xlink" width="96" height="96" viewBox="0 0 96 96">
<g>
	<line stroke-width="1" x1="" y1="" x2="" y2="" stroke="#449FDB" opacity=""></line>
</g>
	<path d="M48 28c11.2 0 20 8.8 20 20 0 2.4-0.4 5.2-1.6 7.2l11.6 11.6c6-5.2 10.8-11.6 13.6-18.8-6.8-17.6-24-30-44-30-5.6 0-10.8 1.2-16 2.8l8.8 8.8c2.4-1.2 5.2-1.6 7.6-1.6zM8 17.2l10.8 10.8c-6.8 5.2-12 12-14.8 20 6.8 17.6 24 30 44 30 6 0 12-1.2 17.6-3.2l13.2 13.2 5.2-5.2-70.8-70.8-5.2 5.2zM30 39.2l6 6c0 1.2 0 2 0 2.8 0 6.8 5.2 12 12 12 0.8 0 1.6 0 2.8-0.4l6 6c-2.8 1.6-5.6 2.4-8.8 2.4-11.2 0-20-8.8-20-20 0-3.2 0.8-6 2-8.8zM47.2 36l12.4 12.4c0-0.4 0-0.4 0-0.8 0-6.8-5.2-12-12-12 0 0.4 0 0.4-0.4 0.4z" fill="#000000"></path>
</svg>
