<?xml version="1.0" encoding="utf-8"?>
<!-- Generated by IcoMoon.io -->
<!DOCTYPE svg PUBLIC "-//W3C//DTD SVG 1.1//EN" "http://www.w3.org/Graphics/SVG/1.1/DTD/svg11.dtd">
<svg version="1.1" xmlns="http://www.w3.org/2000/svg" xmlns:xlink="http://www.w3.org/1999/xlink" width="96" height="96" viewBox="0 0 96 96">
<g>
	<line stroke-width="1" x1="" y1="" x2="" y2="" stroke="#449FDB" opacity=""></line>
</g>
	<path d="M48 18c-20 0-37.2 12.4-44 30 6.8 17.6 24 30 44 30s37.2-12.4 44-30c-6.8-17.6-24-30-44-30zM48 68c-11.2 0-20-8.8-20-20s8.8-20 20-20c11.2 0 20 8.8 20 20s-8.8 20-20 20zM48 36c-6.8 0-12 5.2-12 12s5.2 12 12 12c6.8 0 12-5.2 12-12s-5.2-12-12-12z" fill="#000000"></path>
</svg>
