<?xml version="1.0" encoding="utf-8"?>
<!-- Generated by IcoMoon.io -->
<!DOCTYPE svg PUBLIC "-//W3C//DTD SVG 1.1//EN" "http://www.w3.org/Graphics/SVG/1.1/DTD/svg11.dtd">
<svg version="1.1" xmlns="http://www.w3.org/2000/svg" xmlns:xlink="http://www.w3.org/1999/xlink" width="96" height="96" viewBox="0 0 96 96">
<g>
	<line stroke-width="1" x1="" y1="" x2="" y2="" stroke="#449FDB" opacity=""></line>
</g>
	<path d="M74 24c-12 0-22 10-22 22 0 5.2 2 10 5.2 14h-18.4c3.2-4 5.2-8.8 5.2-14 0-12-10-22-22-22s-22 10-22 22 10 22 22 22h52c12 0 22-10 22-22s-10-22-22-22zM22 60c-7.6 0-14-6.4-14-14s6.4-14 14-14c7.6 0 14 6.4 14 14s-6.4 14-14 14zM74 60c-7.6 0-14-6.4-14-14s6.4-14 14-14c7.6 0 14 6.4 14 14s-6.4 14-14 14z" fill="#000000"></path>
</svg>
