<?xml version="1.0" encoding="utf-8"?>
<!-- Generated by IcoMoon.io -->
<!DOCTYPE svg PUBLIC "-//W3C//DTD SVG 1.1//EN" "http://www.w3.org/Graphics/SVG/1.1/DTD/svg11.dtd">
<svg version="1.1" xmlns="http://www.w3.org/2000/svg" xmlns:xlink="http://www.w3.org/1999/xlink" width="96" height="96" viewBox="0 0 96 96">
<g>
	<line stroke-width="1" x1="" y1="" x2="" y2="" stroke="#449FDB" opacity=""></line>
</g>
	<path d="M66 48c0-7.2-4-13.2-10-16v8.8l10 10c0-1.2 0-2 0-2.8zM76 48c0 3.6-0.8 7.2-2 10.4l6 6c2.8-4.8 4-10.8 4-16.8 0-17.2-12-31.6-28-35.2v8.4c11.6 4 20 14.4 20 27.2zM17.2 12l-5.2 5.2 18.8 18.8h-18.8c0 0 0 24 0 24h16l20 20v-26.8l17.2 17.2c-2.8 2-5.6 3.6-9.2 4.8v8.4c5.6-1.2 10.4-3.6 14.8-7.2l8 8 5.2-5.2-36-36-30.8-31.2zM48 16l-8.4 8.4 8.4 8.4v-16.8z" fill="#000000"></path>
</svg>
