<?xml version="1.0" encoding="utf-8"?>
<!-- Generated by IcoMoon.io -->
<!DOCTYPE svg PUBLIC "-//W3C//DTD SVG 1.1//EN" "http://www.w3.org/Graphics/SVG/1.1/DTD/svg11.dtd">
<svg version="1.1" xmlns="http://www.w3.org/2000/svg" xmlns:xlink="http://www.w3.org/1999/xlink" width="96" height="96" viewBox="0 0 96 96">
<g>
	<line stroke-width="1" x1="" y1="" x2="" y2="" stroke="#449FDB" opacity=""></line>
</g>
	<path d="M88 16v-2c0-5.6-4.4-10-10-10s-10 4.4-10 10v2c-2.4 0-4 1.6-4 4v16c0 2.4 1.6 4 4 4h20c2.4 0 4-1.6 4-4v-16c0-2.4-1.6-4-4-4zM84.8 16h-13.6v-2c0-3.6 3.2-6.8 6.8-6.8s6.8 3.2 6.8 6.8v2zM75.6 48c0 1.2 0.4 2.8 0.4 4 0 8.4-3.2 16-8.4 21.6-1.2-3.2-4-5.6-7.6-5.6h-4v-12c0-2.4-1.6-4-4-4h-24v-8h8c2.4 0 4-1.6 4-4v-8h8c4.4 0 8-3.6 8-8v-10c-3.6-1.2-8-2-12-2-22 0-40 18-40 40s18 40 40 40c22 0 40-18 40-40 0-1.2 0-2.8-0.4-4h-8zM40 83.6c-15.6-2-28-15.6-28-31.6 0-2.4 0.4-4.8 0.8-7.2l19.2 19.2v4c0 4.4 3.6 8 8 8v7.6z" fill="#000000"></path>
</svg>
