<?xml version="1.0" encoding="utf-8"?>
<!-- Generated by IcoMoon.io -->
<!DOCTYPE svg PUBLIC "-//W3C//DTD SVG 1.1//EN" "http://www.w3.org/Graphics/SVG/1.1/DTD/svg11.dtd">
<svg version="1.1" xmlns="http://www.w3.org/2000/svg" xmlns:xlink="http://www.w3.org/1999/xlink" width="96" height="96" viewBox="0 0 96 96">
<g>
	<line stroke-width="1" x1="" y1="" x2="" y2="" stroke="#449FDB" opacity=""></line>
</g>
	<path d="M27.6 50.4h9.2l-4.8-14.4-4.4 14.4zM88 28l-4.8 25.2-6-25.2h-6.4l-6 25.2-4.8-25.2h-3.2c-5.6-7.2-14.8-12-24.8-12-17.6 0-32 14.4-32 32s14.4 32 32 32c12.4 0 23.2-7.2 28.8-17.6l0.4 1.6h6.8l6-24.4 6 24.4h7.2l8-36h-7.2zM41.2 64l-2.8-8h-12.8l-2.8 8h-7.6l12.8-36h8l12.8 36h-7.6z" fill="#000000"></path>
</svg>
