<?xml version="1.0" encoding="utf-8"?>
<!-- Generated by IcoMoon.io -->
<!DOCTYPE svg PUBLIC "-//W3C//DTD SVG 1.1//EN" "http://www.w3.org/Graphics/SVG/1.1/DTD/svg11.dtd">
<svg version="1.1" xmlns="http://www.w3.org/2000/svg" xmlns:xlink="http://www.w3.org/1999/xlink" width="96" height="96" viewBox="0 0 96 96">
<g>
	<line stroke-width="1" x1="" y1="" x2="" y2="" stroke="#449FDB" opacity=""></line>
</g>
	<path d="M20 58h56v-24h-56v24zM44 2.4v11.6h8v-11.6h-8zM76 12l-7.2 7.2 5.6 5.6 7.2-7.2-5.6-5.6zM52 89.6v-11.6h-8v11.6c1.2 0.4 8 0 8 0zM82 74l-7.2-7.2-5.6 5.6 6.8 7.6 6-6zM14 18l7.2 7.2 5.6-5.6-6.8-7.6-6 6zM20 80l7.2-7.2-5.6-5.6-7.2 7.2 5.6 5.6z" fill="#000000"></path>
</svg>
