<?xml version="1.0" encoding="utf-8"?>
<!-- Generated by IcoMoon.io -->
<!DOCTYPE svg PUBLIC "-//W3C//DTD SVG 1.1//EN" "http://www.w3.org/Graphics/SVG/1.1/DTD/svg11.dtd">
<svg version="1.1" xmlns="http://www.w3.org/2000/svg" xmlns:xlink="http://www.w3.org/1999/xlink" width="96" height="96" viewBox="0 0 96 96">
<g>
	<line stroke-width="1" x1="" y1="" x2="" y2="" stroke="#449FDB" opacity=""></line>
</g>
	<path d="M27.2 19.2l-7.2-7.2-6 6 7.2 7.2 6-6zM16 42h-12v8h12v-8zM52 2.4h-8v11.6h8v-11.6zM82 18l-6-6-7.2 7.2 5.6 5.6 7.6-6.8zM68.8 72.8l7.2 7.2 5.6-5.6-7.2-7.2-5.6 5.6zM80 42v8h12v-8h-12zM48 22c-13.2 0-24 10.8-24 24s10.8 24 24 24 24-10.8 24-24-10.8-24-24-24zM44 89.6c1.2 0 8 0 8 0v-11.6h-8v11.6zM14 74l6 6 7.2-7.2-5.6-5.6-7.6 6.8z" fill="#000000"></path>
</svg>
