<?xml version="1.0" encoding="utf-8"?>
<!-- Generated by IcoMoon.io -->
<!DOCTYPE svg PUBLIC "-//W3C//DTD SVG 1.1//EN" "http://www.w3.org/Graphics/SVG/1.1/DTD/svg11.dtd">
<svg version="1.1" xmlns="http://www.w3.org/2000/svg" xmlns:xlink="http://www.w3.org/1999/xlink" width="96" height="96" viewBox="0 0 96 96">
<g>
	<line stroke-width="1" x1="" y1="" x2="" y2="" stroke="#449FDB" opacity=""></line>
</g>
	<path d="M56 8c0 0 2.4 10 2.4 18 0 7.6-5.2 14-12.8 14s-13.6-6.4-13.6-14v-1.2c-7.6 9.2-12 20.8-12 33.2 0 16.4 13.6 30 30 30s30-13.6 30-30c0-20.4-9.2-38.4-24-50zM50 76c-6.8 0-12-5.2-12-11.6 0-6 4-10.4 10.4-11.6 6.8-1.2 13.6-4.4 17.2-9.6 1.6 4.8 2.4 10 2.4 15.2 0 9.6-8 17.6-18 17.6z" fill="#000000"></path>
</svg>
