<?xml version="1.0" encoding="utf-8"?>
<!-- Generated by IcoMoon.io -->
<!DOCTYPE svg PUBLIC "-//W3C//DTD SVG 1.1//EN" "http://www.w3.org/Graphics/SVG/1.1/DTD/svg11.dtd">
<svg version="1.1" xmlns="http://www.w3.org/2000/svg" xmlns:xlink="http://www.w3.org/1999/xlink" width="96" height="96" viewBox="0 0 96 96">
<g>
	<line stroke-width="1" x1="" y1="" x2="" y2="" stroke="#449FDB" opacity=""></line>
</g>
	<path d="M48 40c-4.4 0-8 3.6-8 8s3.6 8 8 8c4.4 0 8-3.6 8-8s-3.6-8-8-8zM72 48c0-13.2-10.8-24-24-24s-24 10.8-24 24c0 8.8 4.8 16.4 12 20.8l4-6.8c-4.8-2.8-8-8-8-13.6 0-8.8 7.2-16 16-16s16 7.2 16 16c0 6-3.2 11.2-8 13.6l4 6.8c7.2-4.4 12-12 12-20.8zM48 8c-22 0-40 18-40 40 0 14.8 8 27.6 20 34.4l4-6.8c-9.6-5.6-16-16-16-27.6 0-17.6 14.4-32 32-32s32 14.4 32 32c0 12-6.4 22-16 27.6l4 6.8c12-6.8 20-20 20-34.4 0-22-18-40-40-40z" fill="#000000"></path>
</svg>
